<?xml version="1.0" encoding="utf-8" standalone="no"?>
<!DOCTYPE svg PUBLIC "-//W3C//DTD SVG 1.1//EN"
  "http://www.w3.org/Graphics/SVG/1.1/DTD/svg11.dtd">
<svg xmlns:xlink="http://www.w3.org/1999/xlink" width="435.744pt" height="435.744pt" viewBox="0 0 435.744 435.744" xmlns="http://www.w3.org/2000/svg" version="1.1">
 <metadata>
  <rdf:RDF xmlns:dc="http://purl.org/dc/elements/1.1/" xmlns:cc="http://creativecommons.org/ns#" xmlns:rdf="http://www.w3.org/1999/02/22-rdf-syntax-ns#">
   <cc:Work>
    <dc:type rdf:resource="http://purl.org/dc/dcmitype/StillImage"/>
    <dc:date>2026-02-24T18:33:20.754151</dc:date>
    <dc:format>image/svg+xml</dc:format>
    <dc:creator>
     <cc:Agent>
      <dc:title>Matplotlib v3.10.0, https://matplotlib.org/</dc:title>
     </cc:Agent>
    </dc:creator>
   </cc:Work>
  </rdf:RDF>
 </metadata>
 <defs>
  <style type="text/css">*{stroke-linejoin: round; stroke-linecap: butt}</style>
 </defs>
 <g id="figure_1">
  <g id="patch_1">
   <path d="M 0 435.744 
L 435.744 435.744 
L 435.744 0 
L 0 0 
z
" style="fill: #ffffff"/>
  </g>
  <g id="axes_1">
   <g id="patch_2">
    <path d="M 276.42576 35.522425 
C 266.978134 32.488724 257.309012 30.193835 247.505762 28.658495 
C 237.702512 27.123154 227.79475 26.352 217.872 26.352 
L 217.872 82.212 
C 224.900615 82.212 231.918613 82.758234 238.862582 83.845767 
C 245.80655 84.9333 252.655511 86.558846 259.34758 88.707717 
z
" clip-path="url(#pf713691c97)" style="fill: #d7443d; stroke: #ffffff; stroke-width: 2.2; stroke-linejoin: miter"/>
   </g>
   <g id="patch_3">
    <path d="M 336.419237 67.451047 
C 327.469844 60.398002 317.908841 54.157682 307.850053 48.804379 
C 297.791264 43.451076 287.274767 39.006119 276.42576 35.522425 
L 259.34758 88.707717 
C 267.032293 91.175334 274.481479 94.323846 281.606454 98.115769 
C 288.731429 101.907692 295.503806 106.327918 301.84296 111.323825 
z
" clip-path="url(#pf713691c97)" style="fill: #e85d4a; stroke: #ffffff; stroke-width: 2.2; stroke-linejoin: miter"/>
   </g>
   <g id="patch_4">
    <path d="M 384.824153 124.026973 
C 378.699634 113.131333 371.523189 102.86136 363.397545 93.364064 
C 355.271902 83.866768 346.236017 75.187683 336.419237 67.451047 
L 301.84296 111.323825 
C 308.796512 116.803942 315.19693 122.951627 320.952594 129.678879 
C 326.708259 136.40613 331.791574 143.680694 336.129775 151.398439 
z
" clip-path="url(#pf713691c97)" style="fill: #f07c5e; stroke: #ffffff; stroke-width: 2.2; stroke-linejoin: miter"/>
   </g>
   <g id="patch_5">
    <path d="M 408.856471 232.184308 
C 410.258939 213.469682 408.903043 194.650132 404.832314 176.329836 
C 400.761585 158.009539 394.020055 140.386665 384.824153 124.026973 
L 336.129775 151.398439 
C 342.643539 162.986554 347.418789 175.469423 350.302222 188.4463 
C 353.185655 201.423177 354.146081 214.753692 353.152667 228.009884 
z
" clip-path="url(#pf713691c97)" style="fill: #f4a261; stroke: #ffffff; stroke-width: 2.2; stroke-linejoin: miter"/>
   </g>
   <g id="patch_6">
    <path d="M 239.862869 408.125284 
C 284.080374 403.014301 325.162211 382.644665 355.996693 350.542568 
C 386.831175 318.440472 405.530092 276.57175 408.856471 232.184308 
L 353.152667 228.009884 
C 350.796482 259.45099 337.551416 289.108001 315.710324 311.846986 
C 293.869232 334.585971 264.769598 349.014463 233.448866 352.634743 
z
" clip-path="url(#pf713691c97)" style="fill: #e9c46a; stroke: #ffffff; stroke-width: 2.2; stroke-linejoin: miter"/>
   </g>
   <g id="patch_7">
    <path d="M 217.872 26.352 
C 191.794388 26.352 165.989445 31.678142 142.042911 42.003129 
C 118.096377 52.328116 96.509025 67.436032 78.60742 86.398478 
C 60.705814 105.360924 46.864315 127.781357 37.933498 152.282017 
C 29.002681 176.782677 25.169307 202.851204 26.668941 228.885661 
C 28.168576 254.920118 34.969858 280.376069 46.654842 303.689219 
C 58.339826 327.00237 74.664154 347.685193 94.62468 364.466708 
C 114.585206 381.248223 137.764513 393.777494 162.738208 401.284582 
C 187.711903 408.791671 213.957735 411.119589 239.862869 408.125284 
L 233.448866 352.634743 
C 215.099396 354.755709 196.508598 353.106767 178.818898 347.789246 
C 161.129197 342.471725 144.710521 333.596825 130.571815 321.709918 
C 116.433109 309.823012 104.870043 295.172679 96.59318 278.659197 
C 88.316316 262.145715 83.498741 244.114417 82.4365 225.673343 
C 81.374259 207.23227 84.089566 188.767063 90.415561 171.412428 
C 96.741557 154.057794 106.545952 138.176654 119.226256 124.744922 
C 131.906559 111.313189 147.197601 100.611749 164.159729 93.298217 
C 181.121857 85.984684 199.400358 82.212 217.872 82.212 
z
" clip-path="url(#pf713691c97)" style="fill: #c95c6a; stroke: #ffffff; stroke-width: 2.2; stroke-linejoin: miter"/>
   </g>
   <g id="patch_8">
    <path d="M 281.712 107.297876 
C 272.04883 101.718843 261.695881 97.430511 250.918016 94.54259 
C 240.14015 91.65467 229.030068 90.192 217.872 90.192 
L 217.872 146.052 
C 224.148413 146.052 230.397834 146.874752 236.460384 148.499207 
C 242.522933 150.123662 248.346467 152.535849 253.782 155.674056 
z
" clip-path="url(#pf713691c97)" style="fill: #2e2d86; stroke: #ffffff; stroke-width: 2.2; stroke-linejoin: miter"/>
   </g>
   <g id="patch_9">
    <path d="M 217.872 345.552 
C 245.973589 345.552 273.30417 336.274518 295.598659 319.167354 
C 317.893149 302.060191 333.928183 278.062066 341.20141 250.918016 
C 348.474636 223.773965 346.586951 194.973462 335.832939 169.010979 
C 325.078926 143.048497 306.04869 121.348671 281.712 107.297876 
L 253.782 155.674056 
C 267.471388 163.577627 278.175896 175.783779 284.225028 190.387676 
C 290.27416 204.991572 291.335983 221.191856 287.244793 236.460384 
C 283.153603 251.728912 274.133896 265.227858 261.593246 274.850637 
C 249.052596 284.473416 233.679144 289.692 217.872 289.692 
z
" clip-path="url(#pf713691c97)" style="fill: #4b46b8; stroke: #ffffff; stroke-width: 2.2; stroke-linejoin: miter"/>
   </g>
   <g id="patch_10">
    <path d="M 217.872 90.192 
C 184.022146 90.192 151.524068 103.653145 127.588606 127.588606 
C 103.653145 151.524068 90.192 184.022146 90.192 217.872 
C 90.192 251.721854 103.653145 284.219932 127.588606 308.155394 
C 151.524068 332.090855 184.022146 345.552 217.872 345.552 
L 217.872 289.692 
C 198.831457 289.692 180.551288 282.120106 167.087591 268.656409 
C 153.623894 255.192712 146.052 236.912543 146.052 217.872 
C 146.052 198.831457 153.623894 180.551288 167.087591 167.087591 
C 180.551288 153.623894 198.831457 146.052 217.872 146.052 
z
" clip-path="url(#pf713691c97)" style="fill: #6a63d8; stroke: #ffffff; stroke-width: 2.2; stroke-linejoin: miter"/>
   </g>
   <g id="text_1">
    <!-- Scenes -->
    <g style="fill: #ffffff" transform="translate(199.029472 55.481447) rotate(-351.098901) scale(0.22 -0.22)">
     <defs>
      <path id="DejaVuSans-Bold-53" d="M 3834 4519 
L 3834 3531 
Q 3450 3703 3084 3790 
Q 2719 3878 2394 3878 
Q 1963 3878 1756 3759 
Q 1550 3641 1550 3391 
Q 1550 3203 1689 3098 
Q 1828 2994 2194 2919 
L 2706 2816 
Q 3484 2659 3812 2340 
Q 4141 2022 4141 1434 
Q 4141 663 3683 286 
Q 3225 -91 2284 -91 
Q 1841 -91 1394 -6 
Q 947 78 500 244 
L 500 1259 
Q 947 1022 1364 901 
Q 1781 781 2169 781 
Q 2563 781 2772 912 
Q 2981 1044 2981 1288 
Q 2981 1506 2839 1625 
Q 2697 1744 2272 1838 
L 1806 1941 
Q 1106 2091 782 2419 
Q 459 2747 459 3303 
Q 459 4000 909 4375 
Q 1359 4750 2203 4750 
Q 2588 4750 2994 4692 
Q 3400 4634 3834 4519 
z
" transform="scale(0.015625)"/>
      <path id="DejaVuSans-Bold-63" d="M 3366 3391 
L 3366 2478 
Q 3138 2634 2908 2709 
Q 2678 2784 2431 2784 
Q 1963 2784 1702 2511 
Q 1441 2238 1441 1747 
Q 1441 1256 1702 982 
Q 1963 709 2431 709 
Q 2694 709 2930 787 
Q 3166 866 3366 1019 
L 3366 103 
Q 3103 6 2833 -42 
Q 2563 -91 2291 -91 
Q 1344 -91 809 395 
Q 275 881 275 1747 
Q 275 2613 809 3098 
Q 1344 3584 2291 3584 
Q 2566 3584 2833 3536 
Q 3100 3488 3366 3391 
z
" transform="scale(0.015625)"/>
      <path id="DejaVuSans-Bold-65" d="M 4031 1759 
L 4031 1441 
L 1416 1441 
Q 1456 1047 1700 850 
Q 1944 653 2381 653 
Q 2734 653 3104 758 
Q 3475 863 3866 1075 
L 3866 213 
Q 3469 63 3072 -14 
Q 2675 -91 2278 -91 
Q 1328 -91 801 392 
Q 275 875 275 1747 
Q 275 2603 792 3093 
Q 1309 3584 2216 3584 
Q 3041 3584 3536 3087 
Q 4031 2591 4031 1759 
z
M 2881 2131 
Q 2881 2450 2695 2645 
Q 2509 2841 2209 2841 
Q 1884 2841 1681 2658 
Q 1478 2475 1428 2131 
L 2881 2131 
z
" transform="scale(0.015625)"/>
      <path id="DejaVuSans-Bold-6e" d="M 4056 2131 
L 4056 0 
L 2931 0 
L 2931 347 
L 2931 1631 
Q 2931 2084 2911 2256 
Q 2891 2428 2841 2509 
Q 2775 2619 2662 2680 
Q 2550 2741 2406 2741 
Q 2056 2741 1856 2470 
Q 1656 2200 1656 1722 
L 1656 0 
L 538 0 
L 538 3500 
L 1656 3500 
L 1656 2988 
Q 1909 3294 2193 3439 
Q 2478 3584 2822 3584 
Q 3428 3584 3742 3212 
Q 4056 2841 4056 2131 
z
" transform="scale(0.015625)"/>
      <path id="DejaVuSans-Bold-73" d="M 3272 3391 
L 3272 2541 
Q 2913 2691 2578 2766 
Q 2244 2841 1947 2841 
Q 1628 2841 1473 2761 
Q 1319 2681 1319 2516 
Q 1319 2381 1436 2309 
Q 1553 2238 1856 2203 
L 2053 2175 
Q 2913 2066 3209 1816 
Q 3506 1566 3506 1031 
Q 3506 472 3093 190 
Q 2681 -91 1863 -91 
Q 1516 -91 1145 -36 
Q 775 19 384 128 
L 384 978 
Q 719 816 1070 734 
Q 1422 653 1784 653 
Q 2113 653 2278 743 
Q 2444 834 2444 1013 
Q 2444 1163 2330 1236 
Q 2216 1309 1875 1350 
L 1678 1375 
Q 931 1469 631 1722 
Q 331 1975 331 2491 
Q 331 3047 712 3315 
Q 1094 3584 1881 3584 
Q 2191 3584 2531 3537 
Q 2872 3491 3272 3391 
z
" transform="scale(0.015625)"/>
     </defs>
     <use xlink:href="#DejaVuSans-Bold-53"/>
     <use xlink:href="#DejaVuSans-Bold-63" transform="translate(72.021484 0)"/>
     <use xlink:href="#DejaVuSans-Bold-65" transform="translate(131.298828 0)"/>
     <use xlink:href="#DejaVuSans-Bold-6e" transform="translate(199.121094 0)"/>
     <use xlink:href="#DejaVuSans-Bold-65" transform="translate(270.3125 0)"/>
     <use xlink:href="#DejaVuSans-Bold-73" transform="translate(338.134766 0)"/>
    </g>
   </g>
   <g id="text_2">
    <!-- Clothing -->
    <g style="fill: #ffffff" transform="translate(246.043852 54.32962) rotate(-331.978022) scale(0.22 -0.22)">
     <defs>
      <path id="DejaVuSans-Bold-43" d="M 4288 256 
Q 3956 84 3597 -3 
Q 3238 -91 2847 -91 
Q 1681 -91 1000 561 
Q 319 1213 319 2328 
Q 319 3447 1000 4098 
Q 1681 4750 2847 4750 
Q 3238 4750 3597 4662 
Q 3956 4575 4288 4403 
L 4288 3438 
Q 3953 3666 3628 3772 
Q 3303 3878 2944 3878 
Q 2300 3878 1931 3465 
Q 1563 3053 1563 2328 
Q 1563 1606 1931 1193 
Q 2300 781 2944 781 
Q 3303 781 3628 887 
Q 3953 994 4288 1222 
L 4288 256 
z
" transform="scale(0.015625)"/>
      <path id="DejaVuSans-Bold-6c" d="M 538 4863 
L 1656 4863 
L 1656 0 
L 538 0 
L 538 4863 
z
" transform="scale(0.015625)"/>
      <path id="DejaVuSans-Bold-6f" d="M 2203 2784 
Q 1831 2784 1636 2517 
Q 1441 2250 1441 1747 
Q 1441 1244 1636 976 
Q 1831 709 2203 709 
Q 2569 709 2762 976 
Q 2956 1244 2956 1747 
Q 2956 2250 2762 2517 
Q 2569 2784 2203 2784 
z
M 2203 3584 
Q 3106 3584 3614 3096 
Q 4122 2609 4122 1747 
Q 4122 884 3614 396 
Q 3106 -91 2203 -91 
Q 1297 -91 786 396 
Q 275 884 275 1747 
Q 275 2609 786 3096 
Q 1297 3584 2203 3584 
z
" transform="scale(0.015625)"/>
      <path id="DejaVuSans-Bold-74" d="M 1759 4494 
L 1759 3500 
L 2913 3500 
L 2913 2700 
L 1759 2700 
L 1759 1216 
Q 1759 972 1856 886 
Q 1953 800 2241 800 
L 2816 800 
L 2816 0 
L 1856 0 
Q 1194 0 917 276 
Q 641 553 641 1216 
L 641 2700 
L 84 2700 
L 84 3500 
L 641 3500 
L 641 4494 
L 1759 4494 
z
" transform="scale(0.015625)"/>
      <path id="DejaVuSans-Bold-68" d="M 4056 2131 
L 4056 0 
L 2931 0 
L 2931 347 
L 2931 1625 
Q 2931 2084 2911 2256 
Q 2891 2428 2841 2509 
Q 2775 2619 2662 2680 
Q 2550 2741 2406 2741 
Q 2056 2741 1856 2470 
Q 1656 2200 1656 1722 
L 1656 0 
L 538 0 
L 538 4863 
L 1656 4863 
L 1656 2988 
Q 1909 3294 2193 3439 
Q 2478 3584 2822 3584 
Q 3428 3584 3742 3212 
Q 4056 2841 4056 2131 
z
" transform="scale(0.015625)"/>
      <path id="DejaVuSans-Bold-69" d="M 538 3500 
L 1656 3500 
L 1656 0 
L 538 0 
L 538 3500 
z
M 538 4863 
L 1656 4863 
L 1656 3950 
L 538 3950 
L 538 4863 
z
" transform="scale(0.015625)"/>
      <path id="DejaVuSans-Bold-67" d="M 2919 594 
Q 2688 288 2409 144 
Q 2131 0 1766 0 
Q 1125 0 706 504 
Q 288 1009 288 1791 
Q 288 2575 706 3076 
Q 1125 3578 1766 3578 
Q 2131 3578 2409 3434 
Q 2688 3291 2919 2981 
L 2919 3500 
L 4044 3500 
L 4044 353 
Q 4044 -491 3511 -936 
Q 2978 -1381 1966 -1381 
Q 1638 -1381 1331 -1331 
Q 1025 -1281 716 -1178 
L 716 -306 
Q 1009 -475 1290 -558 
Q 1572 -641 1856 -641 
Q 2406 -641 2662 -400 
Q 2919 -159 2919 353 
L 2919 594 
z
M 2181 2772 
Q 1834 2772 1640 2515 
Q 1447 2259 1447 1791 
Q 1447 1309 1634 1061 
Q 1822 813 2181 813 
Q 2531 813 2725 1069 
Q 2919 1325 2919 1791 
Q 2919 2259 2725 2515 
Q 2531 2772 2181 2772 
z
" transform="scale(0.015625)"/>
     </defs>
     <use xlink:href="#DejaVuSans-Bold-43"/>
     <use xlink:href="#DejaVuSans-Bold-6c" transform="translate(73.388672 0)"/>
     <use xlink:href="#DejaVuSans-Bold-6f" transform="translate(107.666016 0)"/>
     <use xlink:href="#DejaVuSans-Bold-74" transform="translate(176.367188 0)"/>
     <use xlink:href="#DejaVuSans-Bold-68" transform="translate(224.169922 0)"/>
     <use xlink:href="#DejaVuSans-Bold-69" transform="translate(295.361328 0)"/>
     <use xlink:href="#DejaVuSans-Bold-6e" transform="translate(329.638672 0)"/>
     <use xlink:href="#DejaVuSans-Bold-67" transform="translate(400.830078 0)"/>
    </g>
   </g>
   <g id="text_3">
    <!-- Animals -->
    <g style="fill: #ffffff" transform="translate(305.500623 77.994108) rotate(-310.549451) scale(0.22 -0.22)">
     <defs>
      <path id="DejaVuSans-Bold-41" d="M 3419 850 
L 1538 850 
L 1241 0 
L 31 0 
L 1759 4666 
L 3194 4666 
L 4922 0 
L 3713 0 
L 3419 850 
z
M 1838 1716 
L 3116 1716 
L 2478 3572 
L 1838 1716 
z
" transform="scale(0.015625)"/>
      <path id="DejaVuSans-Bold-6d" d="M 3781 2919 
Q 3994 3244 4286 3414 
Q 4578 3584 4928 3584 
Q 5531 3584 5847 3212 
Q 6163 2841 6163 2131 
L 6163 0 
L 5038 0 
L 5038 1825 
Q 5041 1866 5042 1909 
Q 5044 1953 5044 2034 
Q 5044 2406 4934 2573 
Q 4825 2741 4581 2741 
Q 4263 2741 4089 2478 
Q 3916 2216 3909 1719 
L 3909 0 
L 2784 0 
L 2784 1825 
Q 2784 2406 2684 2573 
Q 2584 2741 2328 2741 
Q 2006 2741 1831 2477 
Q 1656 2213 1656 1722 
L 1656 0 
L 531 0 
L 531 3500 
L 1656 3500 
L 1656 2988 
Q 1863 3284 2130 3434 
Q 2397 3584 2719 3584 
Q 3081 3584 3359 3409 
Q 3638 3234 3781 2919 
z
" transform="scale(0.015625)"/>
      <path id="DejaVuSans-Bold-61" d="M 2106 1575 
Q 1756 1575 1579 1456 
Q 1403 1338 1403 1106 
Q 1403 894 1545 773 
Q 1688 653 1941 653 
Q 2256 653 2472 879 
Q 2688 1106 2688 1447 
L 2688 1575 
L 2106 1575 
z
M 3816 1997 
L 3816 0 
L 2688 0 
L 2688 519 
Q 2463 200 2181 54 
Q 1900 -91 1497 -91 
Q 953 -91 614 226 
Q 275 544 275 1050 
Q 275 1666 698 1953 
Q 1122 2241 2028 2241 
L 2688 2241 
L 2688 2328 
Q 2688 2594 2478 2717 
Q 2269 2841 1825 2841 
Q 1466 2841 1156 2769 
Q 847 2697 581 2553 
L 581 3406 
Q 941 3494 1303 3539 
Q 1666 3584 2028 3584 
Q 2975 3584 3395 3211 
Q 3816 2838 3816 1997 
z
" transform="scale(0.015625)"/>
     </defs>
     <use xlink:href="#DejaVuSans-Bold-41"/>
     <use xlink:href="#DejaVuSans-Bold-6e" transform="translate(77.392578 0)"/>
     <use xlink:href="#DejaVuSans-Bold-69" transform="translate(148.583984 0)"/>
     <use xlink:href="#DejaVuSans-Bold-6d" transform="translate(182.861328 0)"/>
     <use xlink:href="#DejaVuSans-Bold-61" transform="translate(287.060547 0)"/>
     <use xlink:href="#DejaVuSans-Bold-6c" transform="translate(354.541016 0)"/>
     <use xlink:href="#DejaVuSans-Bold-73" transform="translate(388.818359 0)"/>
    </g>
   </g>
   <g id="text_4">
    <!-- Vehicles -->
    <g style="fill: #ffffff" transform="translate(360.520246 133.655158) rotate(-282.527473) scale(0.22 -0.22)">
     <defs>
      <path id="DejaVuSans-Bold-56" d="M 31 4666 
L 1241 4666 
L 2478 1222 
L 3713 4666 
L 4922 4666 
L 3194 0 
L 1759 0 
L 31 4666 
z
" transform="scale(0.015625)"/>
     </defs>
     <use xlink:href="#DejaVuSans-Bold-56"/>
     <use xlink:href="#DejaVuSans-Bold-65" transform="translate(71.892578 0)"/>
     <use xlink:href="#DejaVuSans-Bold-68" transform="translate(139.714844 0)"/>
     <use xlink:href="#DejaVuSans-Bold-69" transform="translate(210.90625 0)"/>
     <use xlink:href="#DejaVuSans-Bold-63" transform="translate(245.183594 0)"/>
     <use xlink:href="#DejaVuSans-Bold-6c" transform="translate(304.460938 0)"/>
     <use xlink:href="#DejaVuSans-Bold-65" transform="translate(338.738281 0)"/>
     <use xlink:href="#DejaVuSans-Bold-73" transform="translate(406.560547 0)"/>
    </g>
   </g>
   <g id="text_5">
    <!-- Anime characters -->
    <g style="fill: #ffffff" transform="translate(284.274293 391.267814) rotate(-46.153846) scale(0.16 -0.16)">
     <defs>
      <path id="DejaVuSans-Bold-20" transform="scale(0.015625)"/>
      <path id="DejaVuSans-Bold-72" d="M 3138 2547 
Q 2991 2616 2845 2648 
Q 2700 2681 2553 2681 
Q 2122 2681 1889 2404 
Q 1656 2128 1656 1613 
L 1656 0 
L 538 0 
L 538 3500 
L 1656 3500 
L 1656 2925 
Q 1872 3269 2151 3426 
Q 2431 3584 2822 3584 
Q 2878 3584 2943 3579 
Q 3009 3575 3134 3559 
L 3138 2547 
z
" transform="scale(0.015625)"/>
     </defs>
     <use xlink:href="#DejaVuSans-Bold-41"/>
     <use xlink:href="#DejaVuSans-Bold-6e" transform="translate(77.392578 0)"/>
     <use xlink:href="#DejaVuSans-Bold-69" transform="translate(148.583984 0)"/>
     <use xlink:href="#DejaVuSans-Bold-6d" transform="translate(182.861328 0)"/>
     <use xlink:href="#DejaVuSans-Bold-65" transform="translate(287.060547 0)"/>
     <use xlink:href="#DejaVuSans-Bold-20" transform="translate(354.882812 0)"/>
     <use xlink:href="#DejaVuSans-Bold-63" transform="translate(389.697266 0)"/>
     <use xlink:href="#DejaVuSans-Bold-68" transform="translate(448.974609 0)"/>
     <use xlink:href="#DejaVuSans-Bold-61" transform="translate(520.166016 0)"/>
     <use xlink:href="#DejaVuSans-Bold-72" transform="translate(587.646484 0)"/>
     <use xlink:href="#DejaVuSans-Bold-61" transform="translate(636.962891 0)"/>
     <use xlink:href="#DejaVuSans-Bold-63" transform="translate(704.443359 0)"/>
     <use xlink:href="#DejaVuSans-Bold-74" transform="translate(763.720703 0)"/>
     <use xlink:href="#DejaVuSans-Bold-65" transform="translate(811.523438 0)"/>
     <use xlink:href="#DejaVuSans-Bold-72" transform="translate(879.345703 0)"/>
     <use xlink:href="#DejaVuSans-Bold-73" transform="translate(928.662109 0)"/>
    </g>
   </g>
   <g id="text_6">
    <!-- People -->
    <g style="fill: #ffffff" transform="translate(46.066128 185.511698) rotate(-273.296703) scale(0.22 -0.22)">
     <defs>
      <path id="DejaVuSans-Bold-50" d="M 588 4666 
L 2584 4666 
Q 3475 4666 3951 4270 
Q 4428 3875 4428 3144 
Q 4428 2409 3951 2014 
Q 3475 1619 2584 1619 
L 1791 1619 
L 1791 0 
L 588 0 
L 588 4666 
z
M 1791 3794 
L 1791 2491 
L 2456 2491 
Q 2806 2491 2997 2661 
Q 3188 2831 3188 3144 
Q 3188 3456 2997 3625 
Q 2806 3794 2456 3794 
L 1791 3794 
z
" transform="scale(0.015625)"/>
      <path id="DejaVuSans-Bold-70" d="M 1656 506 
L 1656 -1331 
L 538 -1331 
L 538 3500 
L 1656 3500 
L 1656 2988 
Q 1888 3294 2169 3439 
Q 2450 3584 2816 3584 
Q 3463 3584 3878 3070 
Q 4294 2556 4294 1747 
Q 4294 938 3878 423 
Q 3463 -91 2816 -91 
Q 2450 -91 2169 54 
Q 1888 200 1656 506 
z
M 2400 2772 
Q 2041 2772 1848 2508 
Q 1656 2244 1656 1747 
Q 1656 1250 1848 986 
Q 2041 722 2400 722 
Q 2759 722 2948 984 
Q 3138 1247 3138 1747 
Q 3138 2247 2948 2509 
Q 2759 2772 2400 2772 
z
" transform="scale(0.015625)"/>
     </defs>
     <use xlink:href="#DejaVuSans-Bold-50"/>
     <use xlink:href="#DejaVuSans-Bold-65" transform="translate(73.291016 0)"/>
     <use xlink:href="#DejaVuSans-Bold-6f" transform="translate(141.113281 0)"/>
     <use xlink:href="#DejaVuSans-Bold-70" transform="translate(209.814453 0)"/>
     <use xlink:href="#DejaVuSans-Bold-6c" transform="translate(281.396484 0)"/>
     <use xlink:href="#DejaVuSans-Bold-65" transform="translate(315.673828 0)"/>
    </g>
   </g>
   <g id="text_7">
    <!-- Architecture -->
    <g style="fill: #ffffff" transform="translate(184.798533 110.597608) rotate(-345) scale(0.17 -0.17)">
     <defs>
      <path id="DejaVuSans-Bold-75" d="M 500 1363 
L 500 3500 
L 1625 3500 
L 1625 3150 
Q 1625 2866 1622 2436 
Q 1619 2006 1619 1863 
Q 1619 1441 1641 1255 
Q 1663 1069 1716 984 
Q 1784 875 1895 815 
Q 2006 756 2150 756 
Q 2500 756 2700 1025 
Q 2900 1294 2900 1772 
L 2900 3500 
L 4019 3500 
L 4019 0 
L 2900 0 
L 2900 506 
Q 2647 200 2364 54 
Q 2081 -91 1741 -91 
Q 1134 -91 817 281 
Q 500 653 500 1363 
z
" transform="scale(0.015625)"/>
     </defs>
     <use xlink:href="#DejaVuSans-Bold-41"/>
     <use xlink:href="#DejaVuSans-Bold-72" transform="translate(77.392578 0)"/>
     <use xlink:href="#DejaVuSans-Bold-63" transform="translate(126.708984 0)"/>
     <use xlink:href="#DejaVuSans-Bold-68" transform="translate(185.986328 0)"/>
     <use xlink:href="#DejaVuSans-Bold-69" transform="translate(257.177734 0)"/>
     <use xlink:href="#DejaVuSans-Bold-74" transform="translate(291.455078 0)"/>
     <use xlink:href="#DejaVuSans-Bold-65" transform="translate(339.257812 0)"/>
     <use xlink:href="#DejaVuSans-Bold-63" transform="translate(407.080078 0)"/>
     <use xlink:href="#DejaVuSans-Bold-74" transform="translate(466.357422 0)"/>
     <use xlink:href="#DejaVuSans-Bold-75" transform="translate(514.160156 0)"/>
     <use xlink:href="#DejaVuSans-Bold-72" transform="translate(585.351562 0)"/>
     <use xlink:href="#DejaVuSans-Bold-65" transform="translate(634.667969 0)"/>
    </g>
   </g>
   <g id="text_8">
    <!-- Daily necessities -->
    <g style="fill: #ffffff" transform="translate(301.691892 304.119933) rotate(-75) scale(0.13 -0.13)">
     <defs>
      <path id="DejaVuSans-Bold-44" d="M 1791 3756 
L 1791 909 
L 2222 909 
Q 2959 909 3348 1275 
Q 3738 1641 3738 2338 
Q 3738 3031 3350 3393 
Q 2963 3756 2222 3756 
L 1791 3756 
z
M 588 4666 
L 1856 4666 
Q 2919 4666 3439 4514 
Q 3959 4363 4331 4000 
Q 4659 3684 4818 3271 
Q 4978 2859 4978 2338 
Q 4978 1809 4818 1395 
Q 4659 981 4331 666 
Q 3956 303 3431 151 
Q 2906 0 1856 0 
L 588 0 
L 588 4666 
z
" transform="scale(0.015625)"/>
      <path id="DejaVuSans-Bold-79" d="M 78 3500 
L 1197 3500 
L 2138 1125 
L 2938 3500 
L 4056 3500 
L 2584 -331 
Q 2363 -916 2067 -1148 
Q 1772 -1381 1288 -1381 
L 641 -1381 
L 641 -647 
L 991 -647 
Q 1275 -647 1404 -556 
Q 1534 -466 1606 -231 
L 1638 -134 
L 78 3500 
z
" transform="scale(0.015625)"/>
     </defs>
     <use xlink:href="#DejaVuSans-Bold-44"/>
     <use xlink:href="#DejaVuSans-Bold-61" transform="translate(83.007812 0)"/>
     <use xlink:href="#DejaVuSans-Bold-69" transform="translate(150.488281 0)"/>
     <use xlink:href="#DejaVuSans-Bold-6c" transform="translate(184.765625 0)"/>
     <use xlink:href="#DejaVuSans-Bold-79" transform="translate(219.042969 0)"/>
     <use xlink:href="#DejaVuSans-Bold-20" transform="translate(284.228516 0)"/>
     <use xlink:href="#DejaVuSans-Bold-6e" transform="translate(319.042969 0)"/>
     <use xlink:href="#DejaVuSans-Bold-65" transform="translate(390.234375 0)"/>
     <use xlink:href="#DejaVuSans-Bold-63" transform="translate(458.056641 0)"/>
     <use xlink:href="#DejaVuSans-Bold-65" transform="translate(517.333984 0)"/>
     <use xlink:href="#DejaVuSans-Bold-73" transform="translate(585.15625 0)"/>
     <use xlink:href="#DejaVuSans-Bold-73" transform="translate(644.677734 0)"/>
     <use xlink:href="#DejaVuSans-Bold-69" transform="translate(704.199219 0)"/>
     <use xlink:href="#DejaVuSans-Bold-74" transform="translate(738.476562 0)"/>
     <use xlink:href="#DejaVuSans-Bold-69" transform="translate(786.279297 0)"/>
     <use xlink:href="#DejaVuSans-Bold-65" transform="translate(820.556641 0)"/>
     <use xlink:href="#DejaVuSans-Bold-73" transform="translate(888.378906 0)"/>
    </g>
   </g>
   <g id="text_9">
    <!-- Food and beverages -->
    <g style="fill: #ffffff" transform="translate(115.129656 155.099812) rotate(-270) scale(0.11 -0.11)">
     <defs>
      <path id="DejaVuSans-Bold-46" d="M 588 4666 
L 3834 4666 
L 3834 3756 
L 1791 3756 
L 1791 2888 
L 3713 2888 
L 3713 1978 
L 1791 1978 
L 1791 0 
L 588 0 
L 588 4666 
z
" transform="scale(0.015625)"/>
      <path id="DejaVuSans-Bold-64" d="M 2919 2988 
L 2919 4863 
L 4044 4863 
L 4044 0 
L 2919 0 
L 2919 506 
Q 2688 197 2409 53 
Q 2131 -91 1766 -91 
Q 1119 -91 703 423 
Q 288 938 288 1747 
Q 288 2556 703 3070 
Q 1119 3584 1766 3584 
Q 2128 3584 2408 3439 
Q 2688 3294 2919 2988 
z
M 2181 722 
Q 2541 722 2730 984 
Q 2919 1247 2919 1747 
Q 2919 2247 2730 2509 
Q 2541 2772 2181 2772 
Q 1825 2772 1636 2509 
Q 1447 2247 1447 1747 
Q 1447 1247 1636 984 
Q 1825 722 2181 722 
z
" transform="scale(0.015625)"/>
      <path id="DejaVuSans-Bold-62" d="M 2400 722 
Q 2759 722 2948 984 
Q 3138 1247 3138 1747 
Q 3138 2247 2948 2509 
Q 2759 2772 2400 2772 
Q 2041 2772 1848 2508 
Q 1656 2244 1656 1747 
Q 1656 1250 1848 986 
Q 2041 722 2400 722 
z
M 1656 2988 
Q 1888 3294 2169 3439 
Q 2450 3584 2816 3584 
Q 3463 3584 3878 3070 
Q 4294 2556 4294 1747 
Q 4294 938 3878 423 
Q 3463 -91 2816 -91 
Q 2450 -91 2169 54 
Q 1888 200 1656 506 
L 1656 0 
L 538 0 
L 538 4863 
L 1656 4863 
L 1656 2988 
z
" transform="scale(0.015625)"/>
      <path id="DejaVuSans-Bold-76" d="M 97 3500 
L 1216 3500 
L 2088 1081 
L 2956 3500 
L 4078 3500 
L 2700 0 
L 1472 0 
L 97 3500 
z
" transform="scale(0.015625)"/>
     </defs>
     <use xlink:href="#DejaVuSans-Bold-46"/>
     <use xlink:href="#DejaVuSans-Bold-6f" transform="translate(64.310547 0)"/>
     <use xlink:href="#DejaVuSans-Bold-6f" transform="translate(133.011719 0)"/>
     <use xlink:href="#DejaVuSans-Bold-64" transform="translate(201.712891 0)"/>
     <use xlink:href="#DejaVuSans-Bold-20" transform="translate(273.294922 0)"/>
     <use xlink:href="#DejaVuSans-Bold-61" transform="translate(308.109375 0)"/>
     <use xlink:href="#DejaVuSans-Bold-6e" transform="translate(375.589844 0)"/>
     <use xlink:href="#DejaVuSans-Bold-64" transform="translate(446.78125 0)"/>
     <use xlink:href="#DejaVuSans-Bold-20" transform="translate(518.363281 0)"/>
     <use xlink:href="#DejaVuSans-Bold-62" transform="translate(553.177734 0)"/>
     <use xlink:href="#DejaVuSans-Bold-65" transform="translate(624.759766 0)"/>
     <use xlink:href="#DejaVuSans-Bold-76" transform="translate(692.582031 0)"/>
     <use xlink:href="#DejaVuSans-Bold-65" transform="translate(757.767578 0)"/>
     <use xlink:href="#DejaVuSans-Bold-72" transform="translate(825.589844 0)"/>
     <use xlink:href="#DejaVuSans-Bold-61" transform="translate(874.90625 0)"/>
     <use xlink:href="#DejaVuSans-Bold-67" transform="translate(942.386719 0)"/>
     <use xlink:href="#DejaVuSans-Bold-65" transform="translate(1013.96875 0)"/>
     <use xlink:href="#DejaVuSans-Bold-73" transform="translate(1081.791016 0)"/>
    </g>
   </g>
   <g id="patch_11">
    <path d="M 217.872 281.712 
C 234.802566 281.712 251.041979 274.985415 263.013697 263.013697 
C 274.985415 251.041979 281.712 234.802566 281.712 217.872 
C 281.712 200.941434 274.985415 184.702021 263.013697 172.730303 
C 251.041979 160.758585 234.802566 154.032 217.872 154.032 
C 200.941434 154.032 184.702021 160.758585 172.730303 172.730303 
C 160.758585 184.702021 154.032 200.941434 154.032 217.872 
C 154.032 234.802566 160.758585 251.041979 172.730303 263.013697 
C 184.702021 274.985415 200.941434 281.712 217.872 281.712 
z
" clip-path="url(#pf713691c97)" style="fill: #ffffff; stroke: #ffffff; stroke-linejoin: miter"/>
   </g>
   <g id="text_10">
    <!-- Content -->
    <g style="fill: #111111" transform="translate(161.885672 224.770437) scale(0.25 -0.25)">
     <use xlink:href="#DejaVuSans-Bold-43"/>
     <use xlink:href="#DejaVuSans-Bold-6f" transform="translate(73.388672 0)"/>
     <use xlink:href="#DejaVuSans-Bold-6e" transform="translate(142.089844 0)"/>
     <use xlink:href="#DejaVuSans-Bold-74" transform="translate(213.28125 0)"/>
     <use xlink:href="#DejaVuSans-Bold-65" transform="translate(261.083984 0)"/>
     <use xlink:href="#DejaVuSans-Bold-6e" transform="translate(328.90625 0)"/>
     <use xlink:href="#DejaVuSans-Bold-74" transform="translate(400.097656 0)"/>
    </g>
   </g>
  </g>
 </g>
 <defs>
  <clipPath id="pf713691c97">
   <rect x="7.2" y="7.2" width="421.344" height="421.344"/>
  </clipPath>
 </defs>
</svg>
