<?xml version="1.0" encoding="utf-8" standalone="no"?>
<!DOCTYPE svg PUBLIC "-//W3C//DTD SVG 1.1//EN"
  "http://www.w3.org/Graphics/SVG/1.1/DTD/svg11.dtd">
<svg xmlns:xlink="http://www.w3.org/1999/xlink" width="435.744pt" height="435.744pt" viewBox="0 0 435.744 435.744" xmlns="http://www.w3.org/2000/svg" version="1.1">
 <metadata>
  <rdf:RDF xmlns:dc="http://purl.org/dc/elements/1.1/" xmlns:cc="http://creativecommons.org/ns#" xmlns:rdf="http://www.w3.org/1999/02/22-rdf-syntax-ns#">
   <cc:Work>
    <dc:type rdf:resource="http://purl.org/dc/dcmitype/StillImage"/>
    <dc:date>2026-02-24T18:33:43.374700</dc:date>
    <dc:format>image/svg+xml</dc:format>
    <dc:creator>
     <cc:Agent>
      <dc:title>Matplotlib v3.10.0, https://matplotlib.org/</dc:title>
     </cc:Agent>
    </dc:creator>
   </cc:Work>
  </rdf:RDF>
 </metadata>
 <defs>
  <style type="text/css">*{stroke-linejoin: round; stroke-linecap: butt}</style>
 </defs>
 <g id="figure_1">
  <g id="patch_1">
   <path d="M 0 435.744 
L 435.744 435.744 
L 435.744 0 
L 0 0 
z
" style="fill: #ffffff"/>
  </g>
  <g id="axes_1">
   <g id="patch_2">
    <path d="M 316.853786 57.921332 
C 302.057476 48.764977 286.061955 41.705858 269.325326 36.946144 
C 252.588697 32.186431 235.272277 29.772 217.872 29.772 
L 217.872 95.607 
C 229.18218 95.607 240.437853 97.17638 251.316662 100.270194 
C 262.195471 103.364007 272.59256 107.952435 282.210161 113.904066 
z
" clip-path="url(#p93943d4b68)" style="fill: #d7443d; stroke: #ffffff; stroke-width: 2.2; stroke-linejoin: miter"/>
   </g>
   <g id="patch_3">
    <path d="M 386.566374 134.662516 
C 378.809642 118.93694 368.891979 104.372941 357.101788 91.394033 
C 345.311597 78.415126 331.76428 67.148348 316.853786 57.921332 
L 282.210161 113.904066 
C 291.901982 119.901626 300.707738 127.225032 308.371362 135.661322 
C 316.034987 144.097612 322.481467 153.564211 327.523343 163.785835 
z
" clip-path="url(#p93943d4b68)" style="fill: #e85d4a; stroke: #ffffff; stroke-width: 2.2; stroke-linejoin: miter"/>
   </g>
   <g id="patch_4">
    <path d="M 404.947148 237.480642 
C 406.789052 219.908065 406.145828 202.163288 403.036467 184.770187 
C 399.927107 167.377087 394.382511 150.508527 386.566374 134.662516 
L 327.523343 163.785835 
C 332.603832 174.085743 336.207819 185.050306 338.228904 196.355822 
C 340.249988 207.661337 340.668084 219.195442 339.470846 230.617617 
z
" clip-path="url(#p93943d4b68)" style="fill: #f07c5e; stroke: #ffffff; stroke-width: 2.2; stroke-linejoin: miter"/>
   </g>
   <g id="patch_5">
    <path d="M 365.148508 334.881573 
C 376.22314 320.94226 385.262921 305.501 391.996935 289.020557 
C 398.730948 272.540114 403.091245 255.186787 404.947148 237.480642 
L 339.470846 230.617617 
C 338.264509 242.126611 335.430316 253.406274 331.053208 264.118562 
C 326.676099 274.83085 320.800241 284.867669 313.60173 293.928223 
z
" clip-path="url(#p93943d4b68)" style="fill: #f4a261; stroke: #ffffff; stroke-width: 2.2; stroke-linejoin: miter"/>
   </g>
   <g id="patch_6">
    <path d="M 222.682332 405.910482 
C 250.176982 405.207124 277.185713 398.481922 301.799815 386.210147 
C 326.413918 373.938372 348.039577 356.416081 365.148508 334.881573 
L 313.60173 293.928223 
C 302.480925 307.925652 288.424247 319.315142 272.42508 327.291796 
C 256.425913 335.268449 238.870239 339.63983 220.998716 340.097013 
z
" clip-path="url(#p93943d4b68)" style="fill: #e9c46a; stroke: #ffffff; stroke-width: 2.2; stroke-linejoin: miter"/>
   </g>
   <g id="patch_7">
    <path d="M 65.743046 328.499264 
C 83.670589 353.152304 107.324991 373.08198 134.662516 386.566374 
C 162.000041 400.050768 192.210025 406.690013 222.682332 405.910482 
L 220.998716 340.097013 
C 201.191716 340.603709 181.555227 336.288199 163.785835 327.523343 
C 146.016444 318.758487 130.641083 305.804197 118.98818 289.779721 
z
" clip-path="url(#p93943d4b68)" style="fill: #c95c6a; stroke: #ffffff; stroke-width: 2.2; stroke-linejoin: miter"/>
   </g>
   <g id="patch_8">
    <path d="M 217.872 29.772 
C 183.178494 29.772 149.152074 39.3704 119.572929 57.50086 
C 89.993784 75.631319 65.999409 101.596613 50.255476 132.51211 
C 34.511542 163.427606 27.623499 198.10442 30.356577 232.690105 
C 33.089656 267.275791 45.338753 300.440323 65.743046 328.499264 
L 118.98818 289.779721 
C 105.725389 271.54141 97.763476 249.984464 95.986975 227.503769 
C 94.210474 205.023073 98.687703 182.483144 108.921259 162.388071 
C 119.154816 142.292999 134.75116 125.415557 153.977604 113.630759 
C 173.204048 101.84596 195.321221 95.607 217.872 95.607 
z
" clip-path="url(#p93943d4b68)" style="fill: #b93e3a; stroke: #ffffff; stroke-width: 2.2; stroke-linejoin: miter"/>
   </g>
   <g id="patch_9">
    <path d="M 282.928151 125.649027 
C 273.466672 118.974688 263.034178 113.795953 251.997466 110.294901 
C 240.960753 106.79385 229.450704 105.012 217.872 105.012 
L 217.872 170.847 
C 222.69646 170.847 227.492314 171.589437 232.090944 173.048209 
C 236.689574 174.50698 241.036447 176.664787 244.97873 179.445761 
z
" clip-path="url(#p93943d4b68)" style="fill: #2e2d86; stroke: #ffffff; stroke-width: 2.2; stroke-linejoin: miter"/>
   </g>
   <g id="patch_10">
    <path d="M 324.710835 254.242906 
C 332.563904 231.174669 332.738459 206.171977 325.208238 182.996342 
C 317.678018 159.820707 302.840587 139.695705 282.928151 125.649027 
L 244.97873 179.445761 
C 253.275578 185.298544 259.457841 193.683961 262.595433 203.340476 
C 265.733024 212.99699 265.660293 223.414779 262.388181 233.026544 
z
" clip-path="url(#p93943d4b68)" style="fill: #4b46b8; stroke: #ffffff; stroke-width: 2.2; stroke-linejoin: miter"/>
   </g>
   <g id="patch_11">
    <path d="M 132.954453 292.211692 
C 146.002823 307.116726 162.748357 318.326883 181.501094 324.710835 
C 200.25383 331.094788 220.360967 332.430302 239.793289 328.582599 
C 259.225611 324.734895 277.306659 315.837917 292.211692 302.789547 
C 307.116726 289.741177 318.326883 272.995643 324.710835 254.242906 
L 262.388181 233.026544 
C 259.728201 240.840185 255.057302 247.81749 248.846872 253.254311 
C 242.636441 258.691132 235.102671 262.398206 227.00587 264.001416 
C 218.909069 265.604626 210.531096 265.048162 202.717456 262.388181 
C 194.903815 259.728201 187.92651 255.057302 182.489689 248.846872 
z
" clip-path="url(#p93943d4b68)" style="fill: #6a63d8; stroke: #ffffff; stroke-width: 2.2; stroke-linejoin: miter"/>
   </g>
   <g id="patch_12">
    <path d="M 217.872 105.012 
C 196.189814 105.012 174.960133 111.260235 156.734811 123.005653 
C 138.50949 134.751071 124.049249 151.503421 115.092242 171.249034 
C 106.135235 190.994647 103.055325 212.909344 106.222725 234.358931 
C 109.390124 255.808517 118.672626 275.897692 132.954453 292.211692 
L 182.489689 248.846872 
C 176.538927 242.049372 172.671218 233.678882 171.351469 224.741554 
C 170.031719 215.804227 171.315015 206.673103 175.047101 198.445764 
C 178.779187 190.218426 184.804287 183.23828 192.398171 178.344355 
C 199.992055 173.450431 208.837756 170.847 217.872 170.847 
z
" clip-path="url(#p93943d4b68)" style="fill: #8b7eea; stroke: #ffffff; stroke-width: 2.2; stroke-linejoin: miter"/>
   </g>
   <g id="text_1">
    <!-- Game art -->
    <g style="fill: #ffffff" transform="translate(203.536227 58.770545) rotate(-344.12483) scale(0.22 -0.22)">
     <defs>
      <path id="DejaVuSans-Bold-47" d="M 4781 347 
Q 4331 128 3847 18 
Q 3363 -91 2847 -91 
Q 1681 -91 1000 561 
Q 319 1213 319 2328 
Q 319 3456 1012 4103 
Q 1706 4750 2913 4750 
Q 3378 4750 3804 4662 
Q 4231 4575 4609 4403 
L 4609 3438 
Q 4219 3659 3833 3768 
Q 3447 3878 3059 3878 
Q 2341 3878 1952 3476 
Q 1563 3075 1563 2328 
Q 1563 1588 1938 1184 
Q 2313 781 3003 781 
Q 3191 781 3352 804 
Q 3513 828 3641 878 
L 3641 1784 
L 2906 1784 
L 2906 2591 
L 4781 2591 
L 4781 347 
z
" transform="scale(0.015625)"/>
      <path id="DejaVuSans-Bold-61" d="M 2106 1575 
Q 1756 1575 1579 1456 
Q 1403 1338 1403 1106 
Q 1403 894 1545 773 
Q 1688 653 1941 653 
Q 2256 653 2472 879 
Q 2688 1106 2688 1447 
L 2688 1575 
L 2106 1575 
z
M 3816 1997 
L 3816 0 
L 2688 0 
L 2688 519 
Q 2463 200 2181 54 
Q 1900 -91 1497 -91 
Q 953 -91 614 226 
Q 275 544 275 1050 
Q 275 1666 698 1953 
Q 1122 2241 2028 2241 
L 2688 2241 
L 2688 2328 
Q 2688 2594 2478 2717 
Q 2269 2841 1825 2841 
Q 1466 2841 1156 2769 
Q 847 2697 581 2553 
L 581 3406 
Q 941 3494 1303 3539 
Q 1666 3584 2028 3584 
Q 2975 3584 3395 3211 
Q 3816 2838 3816 1997 
z
" transform="scale(0.015625)"/>
      <path id="DejaVuSans-Bold-6d" d="M 3781 2919 
Q 3994 3244 4286 3414 
Q 4578 3584 4928 3584 
Q 5531 3584 5847 3212 
Q 6163 2841 6163 2131 
L 6163 0 
L 5038 0 
L 5038 1825 
Q 5041 1866 5042 1909 
Q 5044 1953 5044 2034 
Q 5044 2406 4934 2573 
Q 4825 2741 4581 2741 
Q 4263 2741 4089 2478 
Q 3916 2216 3909 1719 
L 3909 0 
L 2784 0 
L 2784 1825 
Q 2784 2406 2684 2573 
Q 2584 2741 2328 2741 
Q 2006 2741 1831 2477 
Q 1656 2213 1656 1722 
L 1656 0 
L 531 0 
L 531 3500 
L 1656 3500 
L 1656 2988 
Q 1863 3284 2130 3434 
Q 2397 3584 2719 3584 
Q 3081 3584 3359 3409 
Q 3638 3234 3781 2919 
z
" transform="scale(0.015625)"/>
      <path id="DejaVuSans-Bold-65" d="M 4031 1759 
L 4031 1441 
L 1416 1441 
Q 1456 1047 1700 850 
Q 1944 653 2381 653 
Q 2734 653 3104 758 
Q 3475 863 3866 1075 
L 3866 213 
Q 3469 63 3072 -14 
Q 2675 -91 2278 -91 
Q 1328 -91 801 392 
Q 275 875 275 1747 
Q 275 2603 792 3093 
Q 1309 3584 2216 3584 
Q 3041 3584 3536 3087 
Q 4031 2591 4031 1759 
z
M 2881 2131 
Q 2881 2450 2695 2645 
Q 2509 2841 2209 2841 
Q 1884 2841 1681 2658 
Q 1478 2475 1428 2131 
L 2881 2131 
z
" transform="scale(0.015625)"/>
      <path id="DejaVuSans-Bold-20" transform="scale(0.015625)"/>
      <path id="DejaVuSans-Bold-72" d="M 3138 2547 
Q 2991 2616 2845 2648 
Q 2700 2681 2553 2681 
Q 2122 2681 1889 2404 
Q 1656 2128 1656 1613 
L 1656 0 
L 538 0 
L 538 3500 
L 1656 3500 
L 1656 2925 
Q 1872 3269 2151 3426 
Q 2431 3584 2822 3584 
Q 2878 3584 2943 3579 
Q 3009 3575 3134 3559 
L 3138 2547 
z
" transform="scale(0.015625)"/>
      <path id="DejaVuSans-Bold-74" d="M 1759 4494 
L 1759 3500 
L 2913 3500 
L 2913 2700 
L 1759 2700 
L 1759 1216 
Q 1759 972 1856 886 
Q 1953 800 2241 800 
L 2816 800 
L 2816 0 
L 1856 0 
Q 1194 0 917 276 
Q 641 553 641 1216 
L 641 2700 
L 84 2700 
L 84 3500 
L 641 3500 
L 641 4494 
L 1759 4494 
z
" transform="scale(0.015625)"/>
     </defs>
     <use xlink:href="#DejaVuSans-Bold-47"/>
     <use xlink:href="#DejaVuSans-Bold-61" transform="translate(82.080078 0)"/>
     <use xlink:href="#DejaVuSans-Bold-6d" transform="translate(149.560547 0)"/>
     <use xlink:href="#DejaVuSans-Bold-65" transform="translate(253.759766 0)"/>
     <use xlink:href="#DejaVuSans-Bold-20" transform="translate(321.582031 0)"/>
     <use xlink:href="#DejaVuSans-Bold-61" transform="translate(356.396484 0)"/>
     <use xlink:href="#DejaVuSans-Bold-72" transform="translate(423.876953 0)"/>
     <use xlink:href="#DejaVuSans-Bold-74" transform="translate(473.193359 0)"/>
    </g>
   </g>
   <g id="text_2">
    <!-- 3d animate art -->
    <g style="fill: #ffffff" transform="translate(278.490704 61.199417) rotate(-312.252374) scale(0.18 -0.18)">
     <defs>
      <path id="DejaVuSans-Bold-33" d="M 2981 2516 
Q 3453 2394 3698 2092 
Q 3944 1791 3944 1325 
Q 3944 631 3412 270 
Q 2881 -91 1863 -91 
Q 1503 -91 1142 -33 
Q 781 25 428 141 
L 428 1069 
Q 766 900 1098 814 
Q 1431 728 1753 728 
Q 2231 728 2486 893 
Q 2741 1059 2741 1369 
Q 2741 1688 2480 1852 
Q 2219 2016 1709 2016 
L 1228 2016 
L 1228 2791 
L 1734 2791 
Q 2188 2791 2409 2933 
Q 2631 3075 2631 3366 
Q 2631 3634 2415 3781 
Q 2200 3928 1806 3928 
Q 1516 3928 1219 3862 
Q 922 3797 628 3669 
L 628 4550 
Q 984 4650 1334 4700 
Q 1684 4750 2022 4750 
Q 2931 4750 3382 4451 
Q 3834 4153 3834 3553 
Q 3834 3144 3618 2883 
Q 3403 2622 2981 2516 
z
" transform="scale(0.015625)"/>
      <path id="DejaVuSans-Bold-64" d="M 2919 2988 
L 2919 4863 
L 4044 4863 
L 4044 0 
L 2919 0 
L 2919 506 
Q 2688 197 2409 53 
Q 2131 -91 1766 -91 
Q 1119 -91 703 423 
Q 288 938 288 1747 
Q 288 2556 703 3070 
Q 1119 3584 1766 3584 
Q 2128 3584 2408 3439 
Q 2688 3294 2919 2988 
z
M 2181 722 
Q 2541 722 2730 984 
Q 2919 1247 2919 1747 
Q 2919 2247 2730 2509 
Q 2541 2772 2181 2772 
Q 1825 2772 1636 2509 
Q 1447 2247 1447 1747 
Q 1447 1247 1636 984 
Q 1825 722 2181 722 
z
" transform="scale(0.015625)"/>
      <path id="DejaVuSans-Bold-6e" d="M 4056 2131 
L 4056 0 
L 2931 0 
L 2931 347 
L 2931 1631 
Q 2931 2084 2911 2256 
Q 2891 2428 2841 2509 
Q 2775 2619 2662 2680 
Q 2550 2741 2406 2741 
Q 2056 2741 1856 2470 
Q 1656 2200 1656 1722 
L 1656 0 
L 538 0 
L 538 3500 
L 1656 3500 
L 1656 2988 
Q 1909 3294 2193 3439 
Q 2478 3584 2822 3584 
Q 3428 3584 3742 3212 
Q 4056 2841 4056 2131 
z
" transform="scale(0.015625)"/>
      <path id="DejaVuSans-Bold-69" d="M 538 3500 
L 1656 3500 
L 1656 0 
L 538 0 
L 538 3500 
z
M 538 4863 
L 1656 4863 
L 1656 3950 
L 538 3950 
L 538 4863 
z
" transform="scale(0.015625)"/>
     </defs>
     <use xlink:href="#DejaVuSans-Bold-33"/>
     <use xlink:href="#DejaVuSans-Bold-64" transform="translate(69.580078 0)"/>
     <use xlink:href="#DejaVuSans-Bold-20" transform="translate(141.162109 0)"/>
     <use xlink:href="#DejaVuSans-Bold-61" transform="translate(175.976562 0)"/>
     <use xlink:href="#DejaVuSans-Bold-6e" transform="translate(243.457031 0)"/>
     <use xlink:href="#DejaVuSans-Bold-69" transform="translate(314.648438 0)"/>
     <use xlink:href="#DejaVuSans-Bold-6d" transform="translate(348.925781 0)"/>
     <use xlink:href="#DejaVuSans-Bold-61" transform="translate(453.125 0)"/>
     <use xlink:href="#DejaVuSans-Bold-74" transform="translate(520.605469 0)"/>
     <use xlink:href="#DejaVuSans-Bold-65" transform="translate(568.408203 0)"/>
     <use xlink:href="#DejaVuSans-Bold-20" transform="translate(636.230469 0)"/>
     <use xlink:href="#DejaVuSans-Bold-61" transform="translate(671.044922 0)"/>
     <use xlink:href="#DejaVuSans-Bold-72" transform="translate(738.525391 0)"/>
     <use xlink:href="#DejaVuSans-Bold-74" transform="translate(787.841797 0)"/>
    </g>
   </g>
   <g id="text_3">
    <!-- Traditional wester… -->
    <g style="fill: #ffffff" transform="translate(356.774439 130.291002) rotate(-280.135685) scale(0.11 -0.11)">
     <defs>
      <path id="DejaVuSans-Bold-54" d="M 31 4666 
L 4331 4666 
L 4331 3756 
L 2784 3756 
L 2784 0 
L 1581 0 
L 1581 3756 
L 31 3756 
L 31 4666 
z
" transform="scale(0.015625)"/>
      <path id="DejaVuSans-Bold-6f" d="M 2203 2784 
Q 1831 2784 1636 2517 
Q 1441 2250 1441 1747 
Q 1441 1244 1636 976 
Q 1831 709 2203 709 
Q 2569 709 2762 976 
Q 2956 1244 2956 1747 
Q 2956 2250 2762 2517 
Q 2569 2784 2203 2784 
z
M 2203 3584 
Q 3106 3584 3614 3096 
Q 4122 2609 4122 1747 
Q 4122 884 3614 396 
Q 3106 -91 2203 -91 
Q 1297 -91 786 396 
Q 275 884 275 1747 
Q 275 2609 786 3096 
Q 1297 3584 2203 3584 
z
" transform="scale(0.015625)"/>
      <path id="DejaVuSans-Bold-6c" d="M 538 4863 
L 1656 4863 
L 1656 0 
L 538 0 
L 538 4863 
z
" transform="scale(0.015625)"/>
      <path id="DejaVuSans-Bold-77" d="M 225 3500 
L 1313 3500 
L 1900 1088 
L 2491 3500 
L 3425 3500 
L 4013 1113 
L 4603 3500 
L 5691 3500 
L 4769 0 
L 3547 0 
L 2956 2406 
L 2369 0 
L 1147 0 
L 225 3500 
z
" transform="scale(0.015625)"/>
      <path id="DejaVuSans-Bold-73" d="M 3272 3391 
L 3272 2541 
Q 2913 2691 2578 2766 
Q 2244 2841 1947 2841 
Q 1628 2841 1473 2761 
Q 1319 2681 1319 2516 
Q 1319 2381 1436 2309 
Q 1553 2238 1856 2203 
L 2053 2175 
Q 2913 2066 3209 1816 
Q 3506 1566 3506 1031 
Q 3506 472 3093 190 
Q 2681 -91 1863 -91 
Q 1516 -91 1145 -36 
Q 775 19 384 128 
L 384 978 
Q 719 816 1070 734 
Q 1422 653 1784 653 
Q 2113 653 2278 743 
Q 2444 834 2444 1013 
Q 2444 1163 2330 1236 
Q 2216 1309 1875 1350 
L 1678 1375 
Q 931 1469 631 1722 
Q 331 1975 331 2491 
Q 331 3047 712 3315 
Q 1094 3584 1881 3584 
Q 2191 3584 2531 3537 
Q 2872 3491 3272 3391 
z
" transform="scale(0.015625)"/>
      <path id="DejaVuSans-Bold-2026" d="M 4769 1209 
L 5894 1209 
L 5894 0 
L 4769 0 
L 4769 1209 
z
M 506 1209 
L 1631 1209 
L 1631 0 
L 506 0 
L 506 1209 
z
M 2638 1209 
L 3763 1209 
L 3763 0 
L 2638 0 
L 2638 1209 
z
" transform="scale(0.015625)"/>
     </defs>
     <use xlink:href="#DejaVuSans-Bold-54"/>
     <use xlink:href="#DejaVuSans-Bold-72" transform="translate(57.212891 0)"/>
     <use xlink:href="#DejaVuSans-Bold-61" transform="translate(106.529297 0)"/>
     <use xlink:href="#DejaVuSans-Bold-64" transform="translate(174.009766 0)"/>
     <use xlink:href="#DejaVuSans-Bold-69" transform="translate(245.591797 0)"/>
     <use xlink:href="#DejaVuSans-Bold-74" transform="translate(279.869141 0)"/>
     <use xlink:href="#DejaVuSans-Bold-69" transform="translate(327.671875 0)"/>
     <use xlink:href="#DejaVuSans-Bold-6f" transform="translate(361.949219 0)"/>
     <use xlink:href="#DejaVuSans-Bold-6e" transform="translate(430.650391 0)"/>
     <use xlink:href="#DejaVuSans-Bold-61" transform="translate(501.841797 0)"/>
     <use xlink:href="#DejaVuSans-Bold-6c" transform="translate(569.322266 0)"/>
     <use xlink:href="#DejaVuSans-Bold-20" transform="translate(603.599609 0)"/>
     <use xlink:href="#DejaVuSans-Bold-77" transform="translate(638.414062 0)"/>
     <use xlink:href="#DejaVuSans-Bold-65" transform="translate(730.796875 0)"/>
     <use xlink:href="#DejaVuSans-Bold-73" transform="translate(798.619141 0)"/>
     <use xlink:href="#DejaVuSans-Bold-74" transform="translate(858.140625 0)"/>
     <use xlink:href="#DejaVuSans-Bold-65" transform="translate(905.943359 0)"/>
     <use xlink:href="#DejaVuSans-Bold-72" transform="translate(973.765625 0)"/>
     <use xlink:href="#DejaVuSans-Bold-2026" transform="translate(1023.082031 0)"/>
    </g>
   </g>
   <g id="text_4">
    <!-- Modern art design -->
    <g style="fill: #ffffff" transform="translate(340.982503 335.474511) rotate(-67.774763) scale(0.12 -0.12)">
     <defs>
      <path id="DejaVuSans-Bold-4d" d="M 588 4666 
L 2119 4666 
L 3181 2169 
L 4250 4666 
L 5778 4666 
L 5778 0 
L 4641 0 
L 4641 3413 
L 3566 897 
L 2803 897 
L 1728 3413 
L 1728 0 
L 588 0 
L 588 4666 
z
" transform="scale(0.015625)"/>
      <path id="DejaVuSans-Bold-67" d="M 2919 594 
Q 2688 288 2409 144 
Q 2131 0 1766 0 
Q 1125 0 706 504 
Q 288 1009 288 1791 
Q 288 2575 706 3076 
Q 1125 3578 1766 3578 
Q 2131 3578 2409 3434 
Q 2688 3291 2919 2981 
L 2919 3500 
L 4044 3500 
L 4044 353 
Q 4044 -491 3511 -936 
Q 2978 -1381 1966 -1381 
Q 1638 -1381 1331 -1331 
Q 1025 -1281 716 -1178 
L 716 -306 
Q 1009 -475 1290 -558 
Q 1572 -641 1856 -641 
Q 2406 -641 2662 -400 
Q 2919 -159 2919 353 
L 2919 594 
z
M 2181 2772 
Q 1834 2772 1640 2515 
Q 1447 2259 1447 1791 
Q 1447 1309 1634 1061 
Q 1822 813 2181 813 
Q 2531 813 2725 1069 
Q 2919 1325 2919 1791 
Q 2919 2259 2725 2515 
Q 2531 2772 2181 2772 
z
" transform="scale(0.015625)"/>
     </defs>
     <use xlink:href="#DejaVuSans-Bold-4d"/>
     <use xlink:href="#DejaVuSans-Bold-6f" transform="translate(99.511719 0)"/>
     <use xlink:href="#DejaVuSans-Bold-64" transform="translate(168.212891 0)"/>
     <use xlink:href="#DejaVuSans-Bold-65" transform="translate(239.794922 0)"/>
     <use xlink:href="#DejaVuSans-Bold-72" transform="translate(307.617188 0)"/>
     <use xlink:href="#DejaVuSans-Bold-6e" transform="translate(356.933594 0)"/>
     <use xlink:href="#DejaVuSans-Bold-20" transform="translate(428.125 0)"/>
     <use xlink:href="#DejaVuSans-Bold-61" transform="translate(462.939453 0)"/>
     <use xlink:href="#DejaVuSans-Bold-72" transform="translate(530.419922 0)"/>
     <use xlink:href="#DejaVuSans-Bold-74" transform="translate(579.736328 0)"/>
     <use xlink:href="#DejaVuSans-Bold-20" transform="translate(627.539062 0)"/>
     <use xlink:href="#DejaVuSans-Bold-64" transform="translate(662.353516 0)"/>
     <use xlink:href="#DejaVuSans-Bold-65" transform="translate(733.935547 0)"/>
     <use xlink:href="#DejaVuSans-Bold-73" transform="translate(801.757812 0)"/>
     <use xlink:href="#DejaVuSans-Bold-69" transform="translate(861.279297 0)"/>
     <use xlink:href="#DejaVuSans-Bold-67" transform="translate(895.556641 0)"/>
     <use xlink:href="#DejaVuSans-Bold-6e" transform="translate(967.138672 0)"/>
    </g>
   </g>
   <g id="text_5">
    <!-- 2d japanese animtate -->
    <g style="fill: #ffffff" transform="translate(179.817588 416.32395) rotate(-26.499322) scale(0.2 -0.2)">
     <defs>
      <path id="DejaVuSans-Bold-32" d="M 1844 884 
L 3897 884 
L 3897 0 
L 506 0 
L 506 884 
L 2209 2388 
Q 2438 2594 2547 2791 
Q 2656 2988 2656 3200 
Q 2656 3528 2436 3728 
Q 2216 3928 1850 3928 
Q 1569 3928 1234 3808 
Q 900 3688 519 3450 
L 519 4475 
Q 925 4609 1322 4679 
Q 1719 4750 2100 4750 
Q 2938 4750 3402 4381 
Q 3866 4013 3866 3353 
Q 3866 2972 3669 2642 
Q 3472 2313 2841 1759 
L 1844 884 
z
" transform="scale(0.015625)"/>
      <path id="DejaVuSans-Bold-6a" d="M 538 3500 
L 1656 3500 
L 1656 63 
Q 1656 -641 1318 -1011 
Q 981 -1381 341 -1381 
L -213 -1381 
L -213 -647 
L -19 -647 
Q 300 -647 419 -503 
Q 538 -359 538 63 
L 538 3500 
z
M 538 4863 
L 1656 4863 
L 1656 3950 
L 538 3950 
L 538 4863 
z
" transform="scale(0.015625)"/>
      <path id="DejaVuSans-Bold-70" d="M 1656 506 
L 1656 -1331 
L 538 -1331 
L 538 3500 
L 1656 3500 
L 1656 2988 
Q 1888 3294 2169 3439 
Q 2450 3584 2816 3584 
Q 3463 3584 3878 3070 
Q 4294 2556 4294 1747 
Q 4294 938 3878 423 
Q 3463 -91 2816 -91 
Q 2450 -91 2169 54 
Q 1888 200 1656 506 
z
M 2400 2772 
Q 2041 2772 1848 2508 
Q 1656 2244 1656 1747 
Q 1656 1250 1848 986 
Q 2041 722 2400 722 
Q 2759 722 2948 984 
Q 3138 1247 3138 1747 
Q 3138 2247 2948 2509 
Q 2759 2772 2400 2772 
z
" transform="scale(0.015625)"/>
     </defs>
     <use xlink:href="#DejaVuSans-Bold-32"/>
     <use xlink:href="#DejaVuSans-Bold-64" transform="translate(69.580078 0)"/>
     <use xlink:href="#DejaVuSans-Bold-20" transform="translate(141.162109 0)"/>
     <use xlink:href="#DejaVuSans-Bold-6a" transform="translate(175.976562 0)"/>
     <use xlink:href="#DejaVuSans-Bold-61" transform="translate(210.253906 0)"/>
     <use xlink:href="#DejaVuSans-Bold-70" transform="translate(277.734375 0)"/>
     <use xlink:href="#DejaVuSans-Bold-61" transform="translate(349.316406 0)"/>
     <use xlink:href="#DejaVuSans-Bold-6e" transform="translate(416.796875 0)"/>
     <use xlink:href="#DejaVuSans-Bold-65" transform="translate(487.988281 0)"/>
     <use xlink:href="#DejaVuSans-Bold-73" transform="translate(555.810547 0)"/>
     <use xlink:href="#DejaVuSans-Bold-65" transform="translate(615.332031 0)"/>
     <use xlink:href="#DejaVuSans-Bold-20" transform="translate(683.154297 0)"/>
     <use xlink:href="#DejaVuSans-Bold-61" transform="translate(717.96875 0)"/>
     <use xlink:href="#DejaVuSans-Bold-6e" transform="translate(785.449219 0)"/>
     <use xlink:href="#DejaVuSans-Bold-69" transform="translate(856.640625 0)"/>
     <use xlink:href="#DejaVuSans-Bold-6d" transform="translate(890.917969 0)"/>
     <use xlink:href="#DejaVuSans-Bold-74" transform="translate(995.117188 0)"/>
     <use xlink:href="#DejaVuSans-Bold-61" transform="translate(1042.919922 0)"/>
     <use xlink:href="#DejaVuSans-Bold-74" transform="translate(1110.400391 0)"/>
     <use xlink:href="#DejaVuSans-Bold-65" transform="translate(1158.203125 0)"/>
    </g>
   </g>
   <g id="text_6">
    <!-- Line art -->
    <g style="fill: #ffffff" transform="translate(103.484972 341.252684) rotate(-333.744912) scale(0.22 -0.22)">
     <defs>
      <path id="DejaVuSans-Bold-4c" d="M 588 4666 
L 1791 4666 
L 1791 909 
L 3903 909 
L 3903 0 
L 588 0 
L 588 4666 
z
" transform="scale(0.015625)"/>
     </defs>
     <use xlink:href="#DejaVuSans-Bold-4c"/>
     <use xlink:href="#DejaVuSans-Bold-69" transform="translate(63.720703 0)"/>
     <use xlink:href="#DejaVuSans-Bold-6e" transform="translate(97.998047 0)"/>
     <use xlink:href="#DejaVuSans-Bold-65" transform="translate(169.189453 0)"/>
     <use xlink:href="#DejaVuSans-Bold-20" transform="translate(237.011719 0)"/>
     <use xlink:href="#DejaVuSans-Bold-61" transform="translate(271.826172 0)"/>
     <use xlink:href="#DejaVuSans-Bold-72" transform="translate(339.306641 0)"/>
     <use xlink:href="#DejaVuSans-Bold-74" transform="translate(388.623047 0)"/>
    </g>
   </g>
   <g id="text_7">
    <!-- Modern commercial an… -->
    <g style="fill: #ffffff" transform="translate(108.561552 84.476452) rotate(-243.012212) scale(0.1 -0.1)">
     <defs>
      <path id="DejaVuSans-Bold-63" d="M 3366 3391 
L 3366 2478 
Q 3138 2634 2908 2709 
Q 2678 2784 2431 2784 
Q 1963 2784 1702 2511 
Q 1441 2238 1441 1747 
Q 1441 1256 1702 982 
Q 1963 709 2431 709 
Q 2694 709 2930 787 
Q 3166 866 3366 1019 
L 3366 103 
Q 3103 6 2833 -42 
Q 2563 -91 2291 -91 
Q 1344 -91 809 395 
Q 275 881 275 1747 
Q 275 2613 809 3098 
Q 1344 3584 2291 3584 
Q 2566 3584 2833 3536 
Q 3100 3488 3366 3391 
z
" transform="scale(0.015625)"/>
     </defs>
     <use xlink:href="#DejaVuSans-Bold-4d"/>
     <use xlink:href="#DejaVuSans-Bold-6f" transform="translate(99.511719 0)"/>
     <use xlink:href="#DejaVuSans-Bold-64" transform="translate(168.212891 0)"/>
     <use xlink:href="#DejaVuSans-Bold-65" transform="translate(239.794922 0)"/>
     <use xlink:href="#DejaVuSans-Bold-72" transform="translate(307.617188 0)"/>
     <use xlink:href="#DejaVuSans-Bold-6e" transform="translate(356.933594 0)"/>
     <use xlink:href="#DejaVuSans-Bold-20" transform="translate(428.125 0)"/>
     <use xlink:href="#DejaVuSans-Bold-63" transform="translate(462.939453 0)"/>
     <use xlink:href="#DejaVuSans-Bold-6f" transform="translate(522.216797 0)"/>
     <use xlink:href="#DejaVuSans-Bold-6d" transform="translate(590.917969 0)"/>
     <use xlink:href="#DejaVuSans-Bold-6d" transform="translate(695.117188 0)"/>
     <use xlink:href="#DejaVuSans-Bold-65" transform="translate(799.316406 0)"/>
     <use xlink:href="#DejaVuSans-Bold-72" transform="translate(867.138672 0)"/>
     <use xlink:href="#DejaVuSans-Bold-63" transform="translate(916.455078 0)"/>
     <use xlink:href="#DejaVuSans-Bold-69" transform="translate(975.732422 0)"/>
     <use xlink:href="#DejaVuSans-Bold-61" transform="translate(1010.009766 0)"/>
     <use xlink:href="#DejaVuSans-Bold-6c" transform="translate(1077.490234 0)"/>
     <use xlink:href="#DejaVuSans-Bold-20" transform="translate(1111.767578 0)"/>
     <use xlink:href="#DejaVuSans-Bold-61" transform="translate(1146.582031 0)"/>
     <use xlink:href="#DejaVuSans-Bold-6e" transform="translate(1214.0625 0)"/>
     <use xlink:href="#DejaVuSans-Bold-2026" transform="translate(1285.253906 0)"/>
    </g>
   </g>
   <g id="text_8">
    <!-- Material art -->
    <g style="fill: #ffffff" transform="translate(196.345576 131.227932) rotate(-342.4) scale(0.14 -0.14)">
     <use xlink:href="#DejaVuSans-Bold-4d"/>
     <use xlink:href="#DejaVuSans-Bold-61" transform="translate(99.511719 0)"/>
     <use xlink:href="#DejaVuSans-Bold-74" transform="translate(166.992188 0)"/>
     <use xlink:href="#DejaVuSans-Bold-65" transform="translate(214.794922 0)"/>
     <use xlink:href="#DejaVuSans-Bold-72" transform="translate(282.617188 0)"/>
     <use xlink:href="#DejaVuSans-Bold-69" transform="translate(331.933594 0)"/>
     <use xlink:href="#DejaVuSans-Bold-61" transform="translate(366.210938 0)"/>
     <use xlink:href="#DejaVuSans-Bold-6c" transform="translate(433.691406 0)"/>
     <use xlink:href="#DejaVuSans-Bold-20" transform="translate(467.96875 0)"/>
     <use xlink:href="#DejaVuSans-Bold-61" transform="translate(502.783203 0)"/>
     <use xlink:href="#DejaVuSans-Bold-72" transform="translate(570.263672 0)"/>
     <use xlink:href="#DejaVuSans-Bold-74" transform="translate(619.580078 0)"/>
    </g>
   </g>
   <g id="text_9">
    <!-- Traditiona… -->
    <g style="fill: #ffffff" transform="translate(269.266417 134.314484) rotate(-288) scale(0.19 -0.19)">
     <use xlink:href="#DejaVuSans-Bold-54"/>
     <use xlink:href="#DejaVuSans-Bold-72" transform="translate(57.212891 0)"/>
     <use xlink:href="#DejaVuSans-Bold-61" transform="translate(106.529297 0)"/>
     <use xlink:href="#DejaVuSans-Bold-64" transform="translate(174.009766 0)"/>
     <use xlink:href="#DejaVuSans-Bold-69" transform="translate(245.591797 0)"/>
     <use xlink:href="#DejaVuSans-Bold-74" transform="translate(279.869141 0)"/>
     <use xlink:href="#DejaVuSans-Bold-69" transform="translate(327.671875 0)"/>
     <use xlink:href="#DejaVuSans-Bold-6f" transform="translate(361.949219 0)"/>
     <use xlink:href="#DejaVuSans-Bold-6e" transform="translate(430.650391 0)"/>
     <use xlink:href="#DejaVuSans-Bold-61" transform="translate(501.841797 0)"/>
     <use xlink:href="#DejaVuSans-Bold-2026" transform="translate(569.322266 0)"/>
    </g>
   </g>
   <g id="text_10">
    <!-- 2d animate (west) -->
    <g style="fill: #ffffff" transform="translate(123.43817 324.253437) rotate(-11.2) scale(0.22 -0.22)">
     <defs>
      <path id="DejaVuSans-Bold-28" d="M 2413 -844 
L 1484 -844 
Q 1006 -72 778 623 
Q 550 1319 550 2003 
Q 550 2688 779 3389 
Q 1009 4091 1484 4856 
L 2413 4856 
Q 2013 4116 1813 3408 
Q 1613 2700 1613 2009 
Q 1613 1319 1811 609 
Q 2009 -100 2413 -844 
z
" transform="scale(0.015625)"/>
      <path id="DejaVuSans-Bold-29" d="M 513 -844 
Q 913 -100 1113 609 
Q 1313 1319 1313 2009 
Q 1313 2700 1113 3408 
Q 913 4116 513 4856 
L 1441 4856 
Q 1916 4091 2145 3389 
Q 2375 2688 2375 2003 
Q 2375 1319 2147 623 
Q 1919 -72 1441 -844 
L 513 -844 
z
" transform="scale(0.015625)"/>
     </defs>
     <use xlink:href="#DejaVuSans-Bold-32"/>
     <use xlink:href="#DejaVuSans-Bold-64" transform="translate(69.580078 0)"/>
     <use xlink:href="#DejaVuSans-Bold-20" transform="translate(141.162109 0)"/>
     <use xlink:href="#DejaVuSans-Bold-61" transform="translate(175.976562 0)"/>
     <use xlink:href="#DejaVuSans-Bold-6e" transform="translate(243.457031 0)"/>
     <use xlink:href="#DejaVuSans-Bold-69" transform="translate(314.648438 0)"/>
     <use xlink:href="#DejaVuSans-Bold-6d" transform="translate(348.925781 0)"/>
     <use xlink:href="#DejaVuSans-Bold-61" transform="translate(453.125 0)"/>
     <use xlink:href="#DejaVuSans-Bold-74" transform="translate(520.605469 0)"/>
     <use xlink:href="#DejaVuSans-Bold-65" transform="translate(568.408203 0)"/>
     <use xlink:href="#DejaVuSans-Bold-20" transform="translate(636.230469 0)"/>
     <use xlink:href="#DejaVuSans-Bold-28" transform="translate(671.044922 0)"/>
     <use xlink:href="#DejaVuSans-Bold-77" transform="translate(716.748047 0)"/>
     <use xlink:href="#DejaVuSans-Bold-65" transform="translate(809.130859 0)"/>
     <use xlink:href="#DejaVuSans-Bold-73" transform="translate(876.953125 0)"/>
     <use xlink:href="#DejaVuSans-Bold-74" transform="translate(936.474609 0)"/>
     <use xlink:href="#DejaVuSans-Bold-29" transform="translate(984.277344 0)"/>
    </g>
   </g>
   <g id="text_11">
    <!-- 2.5D style -->
    <g style="fill: #ffffff" transform="translate(165.501991 125.317494) rotate(-245.6) scale(0.22 -0.22)">
     <defs>
      <path id="DejaVuSans-Bold-2e" d="M 653 1209 
L 1778 1209 
L 1778 0 
L 653 0 
L 653 1209 
z
" transform="scale(0.015625)"/>
      <path id="DejaVuSans-Bold-35" d="M 678 4666 
L 3669 4666 
L 3669 3781 
L 1638 3781 
L 1638 3059 
Q 1775 3097 1914 3117 
Q 2053 3138 2203 3138 
Q 3056 3138 3531 2711 
Q 4006 2284 4006 1522 
Q 4006 766 3489 337 
Q 2972 -91 2053 -91 
Q 1656 -91 1267 -14 
Q 878 63 494 219 
L 494 1166 
Q 875 947 1217 837 
Q 1559 728 1863 728 
Q 2300 728 2551 942 
Q 2803 1156 2803 1522 
Q 2803 1891 2551 2103 
Q 2300 2316 1863 2316 
Q 1603 2316 1309 2248 
Q 1016 2181 678 2041 
L 678 4666 
z
" transform="scale(0.015625)"/>
      <path id="DejaVuSans-Bold-44" d="M 1791 3756 
L 1791 909 
L 2222 909 
Q 2959 909 3348 1275 
Q 3738 1641 3738 2338 
Q 3738 3031 3350 3393 
Q 2963 3756 2222 3756 
L 1791 3756 
z
M 588 4666 
L 1856 4666 
Q 2919 4666 3439 4514 
Q 3959 4363 4331 4000 
Q 4659 3684 4818 3271 
Q 4978 2859 4978 2338 
Q 4978 1809 4818 1395 
Q 4659 981 4331 666 
Q 3956 303 3431 151 
Q 2906 0 1856 0 
L 588 0 
L 588 4666 
z
" transform="scale(0.015625)"/>
      <path id="DejaVuSans-Bold-79" d="M 78 3500 
L 1197 3500 
L 2138 1125 
L 2938 3500 
L 4056 3500 
L 2584 -331 
Q 2363 -916 2067 -1148 
Q 1772 -1381 1288 -1381 
L 641 -1381 
L 641 -647 
L 991 -647 
Q 1275 -647 1404 -556 
Q 1534 -466 1606 -231 
L 1638 -134 
L 78 3500 
z
" transform="scale(0.015625)"/>
     </defs>
     <use xlink:href="#DejaVuSans-Bold-32"/>
     <use xlink:href="#DejaVuSans-Bold-2e" transform="translate(69.580078 0)"/>
     <use xlink:href="#DejaVuSans-Bold-35" transform="translate(107.568359 0)"/>
     <use xlink:href="#DejaVuSans-Bold-44" transform="translate(177.148438 0)"/>
     <use xlink:href="#DejaVuSans-Bold-20" transform="translate(260.15625 0)"/>
     <use xlink:href="#DejaVuSans-Bold-73" transform="translate(294.970703 0)"/>
     <use xlink:href="#DejaVuSans-Bold-74" transform="translate(354.492188 0)"/>
     <use xlink:href="#DejaVuSans-Bold-79" transform="translate(402.294922 0)"/>
     <use xlink:href="#DejaVuSans-Bold-6c" transform="translate(467.480469 0)"/>
     <use xlink:href="#DejaVuSans-Bold-65" transform="translate(501.757812 0)"/>
    </g>
   </g>
   <g id="patch_13">
    <path d="M 217.872 264.897 
C 230.343176 264.897 242.305243 259.942149 251.123696 251.123696 
C 259.942149 242.305243 264.897 230.343176 264.897 217.872 
C 264.897 205.400824 259.942149 193.438757 251.123696 184.620304 
C 242.305243 175.801851 230.343176 170.847 217.872 170.847 
C 205.400824 170.847 193.438757 175.801851 184.620304 184.620304 
C 175.801851 193.438757 170.847 205.400824 170.847 217.872 
C 170.847 230.343176 175.801851 242.305243 184.620304 251.123696 
C 193.438757 259.942149 205.400824 264.897 217.872 264.897 
z
" clip-path="url(#p93943d4b68)" style="fill: #ffffff; stroke: #ffffff; stroke-linejoin: miter"/>
   </g>
   <g id="text_12">
    <!-- Style -->
    <g style="fill: #111111" transform="translate(181.983328 224.672781) scale(0.25 -0.25)">
     <defs>
      <path id="DejaVuSans-Bold-53" d="M 3834 4519 
L 3834 3531 
Q 3450 3703 3084 3790 
Q 2719 3878 2394 3878 
Q 1963 3878 1756 3759 
Q 1550 3641 1550 3391 
Q 1550 3203 1689 3098 
Q 1828 2994 2194 2919 
L 2706 2816 
Q 3484 2659 3812 2340 
Q 4141 2022 4141 1434 
Q 4141 663 3683 286 
Q 3225 -91 2284 -91 
Q 1841 -91 1394 -6 
Q 947 78 500 244 
L 500 1259 
Q 947 1022 1364 901 
Q 1781 781 2169 781 
Q 2563 781 2772 912 
Q 2981 1044 2981 1288 
Q 2981 1506 2839 1625 
Q 2697 1744 2272 1838 
L 1806 1941 
Q 1106 2091 782 2419 
Q 459 2747 459 3303 
Q 459 4000 909 4375 
Q 1359 4750 2203 4750 
Q 2588 4750 2994 4692 
Q 3400 4634 3834 4519 
z
" transform="scale(0.015625)"/>
     </defs>
     <use xlink:href="#DejaVuSans-Bold-53"/>
     <use xlink:href="#DejaVuSans-Bold-74" transform="translate(72.021484 0)"/>
     <use xlink:href="#DejaVuSans-Bold-79" transform="translate(119.824219 0)"/>
     <use xlink:href="#DejaVuSans-Bold-6c" transform="translate(185.009766 0)"/>
     <use xlink:href="#DejaVuSans-Bold-65" transform="translate(219.287109 0)"/>
    </g>
   </g>
  </g>
 </g>
 <defs>
  <clipPath id="p93943d4b68">
   <rect x="7.2" y="7.2" width="421.344" height="421.344"/>
  </clipPath>
 </defs>
</svg>
