<?xml version="1.0" encoding="utf-8" standalone="no"?>
<!DOCTYPE svg PUBLIC "-//W3C//DTD SVG 1.1//EN"
  "http://www.w3.org/Graphics/SVG/1.1/DTD/svg11.dtd">
<svg xmlns:xlink="http://www.w3.org/1999/xlink" width="751.137575pt" height="290.9482pt" viewBox="0 0 751.137575 290.9482" xmlns="http://www.w3.org/2000/svg" version="1.1">
 <metadata>
  <rdf:RDF xmlns:dc="http://purl.org/dc/elements/1.1/" xmlns:cc="http://creativecommons.org/ns#" xmlns:rdf="http://www.w3.org/1999/02/22-rdf-syntax-ns#">
   <cc:Work>
    <dc:type rdf:resource="http://purl.org/dc/dcmitype/StillImage"/>
    <dc:date>2026-02-24T22:10:09.355055</dc:date>
    <dc:format>image/svg+xml</dc:format>
    <dc:creator>
     <cc:Agent>
      <dc:title>Matplotlib v3.10.0, https://matplotlib.org/</dc:title>
     </cc:Agent>
    </dc:creator>
   </cc:Work>
  </rdf:RDF>
 </metadata>
 <defs>
  <style type="text/css">*{stroke-linejoin: round; stroke-linecap: butt}</style>
 </defs>
 <g id="figure_1">
  <g id="patch_1">
   <path d="M 0 290.9482 
L 751.137575 290.9482 
L 751.137575 0 
L 0 0 
z
" style="fill: #ffffff"/>
  </g>
  <g id="axes_1">
   <g id="patch_2">
    <path d="M 55.214375 249.12 
L 743.937575 249.12 
L 743.937575 7.2 
L 55.214375 7.2 
z
" style="fill: #ffffff"/>
   </g>
   <g id="patch_3">
    <path d="M 86.519975 249.12 
L 125.651975 249.12 
L 125.651975 18.72 
L 86.519975 18.72 
z
" clip-path="url(#p0b1499d6c3)" style="fill: #9b2226"/>
   </g>
   <g id="patch_4">
    <path d="M 145.217975 249.12 
L 184.349975 249.12 
L 184.349975 104.903459 
L 145.217975 104.903459 
z
" clip-path="url(#p0b1499d6c3)" style="fill: #ac2014"/>
   </g>
   <g id="patch_5">
    <path d="M 203.915975 249.12 
L 243.047975 249.12 
L 243.047975 140.849323 
L 203.915975 140.849323 
z
" clip-path="url(#p0b1499d6c3)" style="fill: #b83806"/>
   </g>
   <g id="patch_6">
    <path d="M 262.613975 249.12 
L 301.745975 249.12 
L 301.745975 188.055338 
L 262.613975 188.055338 
z
" clip-path="url(#p0b1499d6c3)" style="fill: #c55a02"/>
   </g>
   <g id="patch_7">
    <path d="M 321.311975 249.12 
L 360.443975 249.12 
L 360.443975 188.921504 
L 321.311975 188.921504 
z
" clip-path="url(#p0b1499d6c3)" style="fill: #e08601"/>
   </g>
   <g id="patch_8">
    <path d="M 380.009975 249.12 
L 419.141975 249.12 
L 419.141975 189.787669 
L 380.009975 189.787669 
z
" clip-path="url(#p0b1499d6c3)" style="fill: #ecb850"/>
   </g>
   <g id="patch_9">
    <path d="M 438.707975 249.12 
L 477.839975 249.12 
L 477.839975 191.953083 
L 438.707975 191.953083 
z
" clip-path="url(#p0b1499d6c3)" style="fill: #c7d6af"/>
   </g>
   <g id="patch_10">
    <path d="M 497.405975 249.12 
L 536.537975 249.12 
L 536.537975 209.709474 
L 497.405975 209.709474 
z
" clip-path="url(#p0b1499d6c3)" style="fill: #68beb1"/>
   </g>
   <g id="patch_11">
    <path d="M 556.103975 249.12 
L 595.235975 249.12 
L 595.235975 213.174135 
L 556.103975 213.174135 
z
" clip-path="url(#p0b1499d6c3)" style="fill: #08898f"/>
   </g>
   <g id="patch_12">
    <path d="M 614.801975 249.12 
L 653.933975 249.12 
L 653.933975 227.898947 
L 614.801975 227.898947 
z
" clip-path="url(#p0b1499d6c3)" style="fill: #005668"/>
   </g>
   <g id="patch_13">
    <path d="M 673.499975 249.12 
L 712.631975 249.12 
L 712.631975 239.59218 
L 673.499975 239.59218 
z
" clip-path="url(#p0b1499d6c3)" style="fill: #001219"/>
   </g>
   <g id="matplotlib.axis_1">
    <g id="xtick_1">
     <g id="line2d_1"/>
     <g id="text_1">
      <!-- Advertising -->
      <g style="fill: #111111" transform="translate(72.151287 268.19125) scale(0.12 -0.12)">
       <defs>
        <path id="AvenirNext-Bold-41" d="M 3539 0 
L 3187 890 
L 1434 890 
L 1101 0 
L -90 0 
L 1811 4531 
L 2874 4531 
L 4755 0 
L 3539 0 
z
M 2323 3322 
L 1747 1766 
L 2886 1766 
L 2323 3322 
z
" transform="scale(0.015625)"/>
        <path id="AvenirNext-Bold-64" d="M 2822 0 
L 2822 416 
L 2810 416 
Q 2656 173 2371 41 
Q 2086 -90 1766 -90 
Q 1408 -90 1126 51 
Q 845 192 649 425 
Q 454 659 352 966 
Q 250 1274 250 1606 
Q 250 1939 355 2243 
Q 461 2547 656 2777 
Q 851 3008 1129 3142 
Q 1408 3277 1754 3277 
Q 2106 3277 2349 3142 
Q 2592 3008 2726 2848 
L 2739 2848 
L 2739 4838 
L 3789 4838 
L 3789 0 
L 2822 0 
z
M 2784 1600 
Q 2784 1754 2729 1901 
Q 2675 2048 2576 2163 
Q 2477 2278 2336 2348 
Q 2195 2419 2016 2419 
Q 1830 2419 1689 2348 
Q 1549 2278 1453 2166 
Q 1357 2054 1309 1907 
Q 1261 1760 1261 1606 
Q 1261 1453 1309 1302 
Q 1357 1152 1453 1037 
Q 1549 922 1689 851 
Q 1830 781 2016 781 
Q 2195 781 2336 851 
Q 2477 922 2576 1037 
Q 2675 1152 2729 1299 
Q 2784 1446 2784 1600 
z
" transform="scale(0.015625)"/>
        <path id="AvenirNext-Bold-76" d="M 2381 0 
L 1248 0 
L -6 3187 
L 1152 3187 
L 1824 1120 
L 1843 1120 
L 2515 3187 
L 3635 3187 
L 2381 0 
z
" transform="scale(0.015625)"/>
        <path id="AvenirNext-Bold-65" d="M 2605 1958 
Q 2605 2208 2448 2387 
Q 2291 2566 1978 2566 
Q 1824 2566 1696 2518 
Q 1568 2470 1472 2387 
Q 1376 2304 1318 2192 
Q 1261 2080 1254 1958 
L 2605 1958 
z
M 3571 1555 
Q 3571 1491 3571 1427 
Q 3571 1363 3565 1306 
L 1254 1306 
Q 1267 1171 1334 1062 
Q 1402 954 1507 874 
Q 1613 794 1744 749 
Q 1875 704 2016 704 
Q 2266 704 2438 797 
Q 2611 890 2720 1037 
L 3450 576 
Q 3226 250 2858 74 
Q 2490 -102 2003 -102 
Q 1645 -102 1325 10 
Q 1005 122 765 336 
Q 525 550 387 864 
Q 250 1178 250 1581 
Q 250 1971 384 2288 
Q 518 2605 748 2825 
Q 979 3046 1292 3168 
Q 1606 3290 1971 3290 
Q 2323 3290 2617 3171 
Q 2912 3053 3123 2829 
Q 3334 2605 3452 2285 
Q 3571 1965 3571 1555 
z
" transform="scale(0.015625)"/>
        <path id="AvenirNext-Bold-72" d="M 2477 2330 
Q 2406 2349 2339 2355 
Q 2272 2362 2208 2362 
Q 1997 2362 1853 2285 
Q 1709 2208 1622 2099 
Q 1536 1990 1497 1862 
Q 1459 1734 1459 1638 
L 1459 0 
L 410 0 
L 410 3187 
L 1421 3187 
L 1421 2726 
L 1434 2726 
Q 1555 2970 1779 3123 
Q 2003 3277 2298 3277 
Q 2362 3277 2422 3270 
Q 2483 3264 2522 3251 
L 2477 2330 
z
" transform="scale(0.015625)"/>
        <path id="AvenirNext-Bold-74" d="M 1549 2400 
L 1549 1184 
Q 1549 960 1635 848 
Q 1722 736 1946 736 
Q 2022 736 2108 749 
Q 2195 762 2253 787 
L 2266 19 
Q 2157 -19 1990 -48 
Q 1824 -77 1658 -77 
Q 1338 -77 1120 3 
Q 902 83 771 233 
Q 640 384 582 592 
Q 525 800 525 1056 
L 525 2400 
L 13 2400 
L 13 3187 
L 518 3187 
L 518 4026 
L 1549 4026 
L 1549 3187 
L 2298 3187 
L 2298 2400 
L 1549 2400 
z
" transform="scale(0.015625)"/>
        <path id="AvenirNext-Bold-69" d="M 1549 4205 
Q 1549 4083 1501 3977 
Q 1453 3872 1373 3795 
Q 1293 3718 1181 3673 
Q 1069 3629 947 3629 
Q 691 3629 518 3798 
Q 346 3968 346 4205 
Q 346 4320 390 4425 
Q 435 4531 518 4608 
Q 602 4685 710 4733 
Q 819 4781 947 4781 
Q 1069 4781 1181 4736 
Q 1293 4691 1373 4614 
Q 1453 4538 1501 4432 
Q 1549 4326 1549 4205 
z
M 422 0 
L 422 3187 
L 1472 3187 
L 1472 0 
L 422 0 
z
" transform="scale(0.015625)"/>
        <path id="AvenirNext-Bold-73" d="M 2285 2246 
Q 2157 2368 1984 2451 
Q 1811 2534 1619 2534 
Q 1472 2534 1347 2476 
Q 1222 2419 1222 2278 
Q 1222 2144 1360 2086 
Q 1498 2029 1805 1958 
Q 1984 1920 2166 1849 
Q 2349 1779 2496 1664 
Q 2643 1549 2732 1382 
Q 2822 1216 2822 986 
Q 2822 685 2700 477 
Q 2579 269 2384 141 
Q 2189 13 1945 -44 
Q 1702 -102 1459 -102 
Q 1069 -102 694 22 
Q 320 147 70 390 
L 659 1011 
Q 800 858 1005 755 
Q 1210 653 1440 653 
Q 1568 653 1693 713 
Q 1818 774 1818 928 
Q 1818 1075 1664 1145 
Q 1510 1216 1184 1293 
Q 1018 1331 851 1395 
Q 685 1459 553 1568 
Q 422 1677 339 1837 
Q 256 1997 256 2221 
Q 256 2509 377 2710 
Q 499 2912 691 3040 
Q 883 3168 1116 3229 
Q 1350 3290 1581 3290 
Q 1939 3290 2281 3178 
Q 2624 3066 2861 2842 
L 2285 2246 
z
" transform="scale(0.015625)"/>
        <path id="AvenirNext-Bold-6e" d="M 2502 0 
L 2502 1741 
Q 2502 1875 2480 1996 
Q 2458 2118 2406 2211 
Q 2355 2304 2262 2358 
Q 2170 2413 2029 2413 
Q 1888 2413 1782 2358 
Q 1677 2304 1606 2208 
Q 1536 2112 1501 1987 
Q 1466 1862 1466 1728 
L 1466 0 
L 410 0 
L 410 3187 
L 1427 3187 
L 1427 2746 
L 1440 2746 
Q 1498 2848 1590 2947 
Q 1683 3046 1808 3116 
Q 1933 3187 2080 3232 
Q 2227 3277 2394 3277 
Q 2714 3277 2938 3161 
Q 3162 3046 3299 2864 
Q 3437 2682 3497 2445 
Q 3558 2208 3558 1971 
L 3558 0 
L 2502 0 
z
" transform="scale(0.015625)"/>
        <path id="AvenirNext-Bold-67" d="M 3789 301 
Q 3789 -166 3654 -512 
Q 3520 -858 3277 -1085 
Q 3034 -1312 2685 -1424 
Q 2336 -1536 1914 -1536 
Q 1491 -1536 1046 -1408 
Q 602 -1280 275 -1037 
L 800 -288 
Q 1030 -493 1308 -592 
Q 1587 -691 1856 -691 
Q 2317 -691 2537 -448 
Q 2758 -205 2758 198 
L 2758 390 
L 2739 390 
Q 2592 198 2342 83 
Q 2093 -32 1773 -32 
Q 1408 -32 1126 99 
Q 845 230 649 454 
Q 454 678 352 976 
Q 250 1274 250 1606 
Q 250 1939 352 2240 
Q 454 2541 649 2771 
Q 845 3002 1126 3139 
Q 1408 3277 1766 3277 
Q 2067 3277 2342 3155 
Q 2618 3034 2784 2778 
L 2797 2778 
L 2797 3187 
L 3789 3187 
L 3789 301 
z
M 2790 1613 
Q 2790 1773 2736 1920 
Q 2682 2067 2579 2179 
Q 2477 2291 2336 2355 
Q 2195 2419 2016 2419 
Q 1837 2419 1699 2355 
Q 1562 2291 1466 2182 
Q 1370 2074 1318 1926 
Q 1267 1779 1267 1613 
Q 1267 1453 1318 1305 
Q 1370 1158 1466 1046 
Q 1562 934 1699 867 
Q 1837 800 2016 800 
Q 2195 800 2339 867 
Q 2483 934 2582 1043 
Q 2682 1152 2736 1299 
Q 2790 1446 2790 1613 
z
" transform="scale(0.015625)"/>
       </defs>
       <use xlink:href="#AvenirNext-Bold-41"/>
       <use xlink:href="#AvenirNext-Bold-64" transform="translate(72.899994 0)"/>
       <use xlink:href="#AvenirNext-Bold-76" transform="translate(138.699982 0)"/>
       <use xlink:href="#AvenirNext-Bold-65" transform="translate(195.399979 0)"/>
       <use xlink:href="#AvenirNext-Bold-72" transform="translate(254.999969 0)"/>
       <use xlink:href="#AvenirNext-Bold-74" transform="translate(294.59996 0)"/>
       <use xlink:href="#AvenirNext-Bold-69" transform="translate(331.799957 0)"/>
       <use xlink:href="#AvenirNext-Bold-73" transform="translate(361.399948 0)"/>
       <use xlink:href="#AvenirNext-Bold-69" transform="translate(408.599945 0)"/>
       <use xlink:href="#AvenirNext-Bold-6e" transform="translate(438.199936 0)"/>
       <use xlink:href="#AvenirNext-Bold-67" transform="translate(499.799927 0)"/>
      </g>
      <!-- illustration -->
      <g style="fill: #111111" transform="translate(74.8166 280.8682) scale(0.12 -0.12)">
       <defs>
        <path id="AvenirNext-Bold-6c" d="M 422 0 
L 422 4838 
L 1485 4838 
L 1485 0 
L 422 0 
z
" transform="scale(0.015625)"/>
        <path id="AvenirNext-Bold-75" d="M 2509 0 
L 2509 442 
L 2496 442 
Q 2438 333 2345 237 
Q 2253 141 2128 70 
Q 2003 0 1852 -45 
Q 1702 -90 1536 -90 
Q 1216 -90 995 25 
Q 774 141 636 323 
Q 499 506 438 739 
Q 378 973 378 1216 
L 378 3187 
L 1434 3187 
L 1434 1459 
Q 1434 1325 1453 1203 
Q 1472 1082 1526 986 
Q 1581 890 1670 835 
Q 1760 781 1907 781 
Q 2182 781 2326 985 
Q 2470 1190 2470 1466 
L 2470 3187 
L 3520 3187 
L 3520 0 
L 2509 0 
z
" transform="scale(0.015625)"/>
        <path id="AvenirNext-Bold-61" d="M 2291 1389 
L 2157 1389 
Q 1984 1389 1808 1373 
Q 1632 1357 1494 1312 
Q 1357 1267 1267 1180 
Q 1178 1094 1178 954 
Q 1178 864 1219 800 
Q 1261 736 1325 697 
Q 1389 659 1472 643 
Q 1555 627 1632 627 
Q 1952 627 2121 803 
Q 2291 979 2291 1280 
L 2291 1389 
z
M 365 2752 
Q 646 3021 1020 3155 
Q 1395 3290 1786 3290 
Q 2189 3290 2467 3190 
Q 2746 3091 2918 2883 
Q 3091 2675 3171 2358 
Q 3251 2042 3251 1606 
L 3251 0 
L 2291 0 
L 2291 339 
L 2272 339 
Q 2150 141 1904 32 
Q 1658 -77 1370 -77 
Q 1178 -77 973 -25 
Q 768 26 598 141 
Q 429 256 320 448 
Q 211 640 211 922 
Q 211 1267 400 1478 
Q 589 1690 886 1805 
Q 1184 1920 1549 1958 
Q 1914 1997 2259 1997 
L 2259 2048 
Q 2259 2285 2092 2397 
Q 1926 2509 1683 2509 
Q 1459 2509 1251 2413 
Q 1043 2317 896 2182 
L 365 2752 
z
" transform="scale(0.015625)"/>
        <path id="AvenirNext-Bold-6f" d="M 3789 1606 
Q 3789 1216 3648 899 
Q 3507 582 3264 361 
Q 3021 141 2701 19 
Q 2381 -102 2016 -102 
Q 1658 -102 1334 19 
Q 1011 141 771 361 
Q 531 582 390 899 
Q 250 1216 250 1606 
Q 250 1997 390 2310 
Q 531 2624 771 2841 
Q 1011 3059 1334 3174 
Q 1658 3290 2016 3290 
Q 2381 3290 2701 3174 
Q 3021 3059 3264 2841 
Q 3507 2624 3648 2310 
Q 3789 1997 3789 1606 
z
M 2778 1606 
Q 2778 1760 2726 1907 
Q 2675 2054 2579 2166 
Q 2483 2278 2342 2348 
Q 2202 2419 2016 2419 
Q 1830 2419 1689 2348 
Q 1549 2278 1456 2166 
Q 1363 2054 1315 1907 
Q 1267 1760 1267 1606 
Q 1267 1453 1315 1305 
Q 1363 1158 1459 1040 
Q 1555 922 1696 851 
Q 1837 781 2022 781 
Q 2208 781 2349 851 
Q 2490 922 2586 1040 
Q 2682 1158 2730 1305 
Q 2778 1453 2778 1606 
z
" transform="scale(0.015625)"/>
       </defs>
       <use xlink:href="#AvenirNext-Bold-69"/>
       <use xlink:href="#AvenirNext-Bold-6c" transform="translate(29.599991 0)"/>
       <use xlink:href="#AvenirNext-Bold-6c" transform="translate(59.399979 0)"/>
       <use xlink:href="#AvenirNext-Bold-75" transform="translate(89.199966 0)"/>
       <use xlink:href="#AvenirNext-Bold-73" transform="translate(150.59996 0)"/>
       <use xlink:href="#AvenirNext-Bold-74" transform="translate(197.799957 0)"/>
       <use xlink:href="#AvenirNext-Bold-72" transform="translate(234.999954 0)"/>
       <use xlink:href="#AvenirNext-Bold-61" transform="translate(272.974945 0)"/>
       <use xlink:href="#AvenirNext-Bold-74" transform="translate(329.574936 0)"/>
       <use xlink:href="#AvenirNext-Bold-69" transform="translate(366.774933 0)"/>
       <use xlink:href="#AvenirNext-Bold-6f" transform="translate(396.374924 0)"/>
       <use xlink:href="#AvenirNext-Bold-6e" transform="translate(459.574921 0)"/>
      </g>
     </g>
    </g>
    <g id="xtick_2">
     <g id="line2d_2"/>
     <g id="text_2">
      <!-- 2d japanese -->
      <g style="fill: #111111" transform="translate(129.253662 268.19125) scale(0.12 -0.12)">
       <defs>
        <path id="AvenirNext-Bold-32" d="M 435 0 
L 435 896 
L 2202 2496 
Q 2368 2656 2470 2822 
Q 2573 2989 2573 3194 
Q 2573 3437 2419 3587 
Q 2266 3738 2010 3738 
Q 1741 3738 1571 3549 
Q 1402 3360 1370 3053 
L 339 3194 
Q 378 3539 528 3808 
Q 678 4077 908 4265 
Q 1139 4454 1436 4553 
Q 1734 4653 2067 4653 
Q 2381 4653 2675 4569 
Q 2970 4486 3200 4313 
Q 3430 4141 3568 3878 
Q 3706 3616 3706 3264 
Q 3706 3021 3642 2825 
Q 3578 2630 3466 2464 
Q 3354 2298 3210 2154 
Q 3066 2010 2912 1869 
L 1862 934 
L 3712 934 
L 3712 0 
L 435 0 
z
" transform="scale(0.015625)"/>
        <path id="AvenirNext-Bold-20" transform="scale(0.015625)"/>
        <path id="AvenirNext-Bold-6a" d="M 1568 4205 
Q 1568 4083 1520 3977 
Q 1472 3872 1392 3795 
Q 1312 3718 1200 3673 
Q 1088 3629 966 3629 
Q 710 3629 537 3798 
Q 365 3968 365 4205 
Q 365 4320 409 4425 
Q 454 4531 537 4608 
Q 621 4685 729 4733 
Q 838 4781 966 4781 
Q 1088 4781 1200 4736 
Q 1312 4691 1392 4614 
Q 1472 4538 1520 4432 
Q 1568 4326 1568 4205 
z
M 1491 -83 
Q 1491 -378 1436 -643 
Q 1382 -909 1241 -1107 
Q 1101 -1306 851 -1421 
Q 602 -1536 218 -1536 
Q 109 -1536 -19 -1523 
Q -147 -1510 -237 -1485 
L -166 -608 
Q -109 -627 -48 -633 
Q 13 -640 58 -640 
Q 288 -640 365 -483 
Q 442 -326 442 -83 
L 442 3187 
L 1491 3187 
L 1491 -83 
z
" transform="scale(0.015625)"/>
        <path id="AvenirNext-Bold-70" d="M 3955 1606 
Q 3955 1274 3852 966 
Q 3750 659 3555 425 
Q 3360 192 3078 51 
Q 2797 -90 2438 -90 
Q 2144 -90 1881 28 
Q 1619 147 1472 352 
L 1459 352 
L 1459 -1536 
L 410 -1536 
L 410 3187 
L 1408 3187 
L 1408 2797 
L 1427 2797 
Q 1574 2989 1833 3133 
Q 2093 3277 2445 3277 
Q 2790 3277 3072 3142 
Q 3354 3008 3549 2777 
Q 3744 2547 3849 2243 
Q 3955 1939 3955 1606 
z
M 2938 1606 
Q 2938 1760 2890 1907 
Q 2842 2054 2749 2166 
Q 2656 2278 2515 2348 
Q 2374 2419 2189 2419 
Q 2010 2419 1869 2348 
Q 1728 2278 1629 2163 
Q 1530 2048 1475 1901 
Q 1421 1754 1421 1600 
Q 1421 1446 1475 1299 
Q 1530 1152 1629 1037 
Q 1728 922 1869 851 
Q 2010 781 2189 781 
Q 2374 781 2515 851 
Q 2656 922 2749 1037 
Q 2842 1152 2890 1302 
Q 2938 1453 2938 1606 
z
" transform="scale(0.015625)"/>
       </defs>
       <use xlink:href="#AvenirNext-Bold-32"/>
       <use xlink:href="#AvenirNext-Bold-64" transform="translate(64.599991 0)"/>
       <use xlink:href="#AvenirNext-Bold-20" transform="translate(130.399979 0)"/>
       <use xlink:href="#AvenirNext-Bold-6a" transform="translate(155.399963 0)"/>
       <use xlink:href="#AvenirNext-Bold-61" transform="translate(185.299957 0)"/>
       <use xlink:href="#AvenirNext-Bold-70" transform="translate(241.899948 0)"/>
       <use xlink:href="#AvenirNext-Bold-61" transform="translate(307.599945 0)"/>
       <use xlink:href="#AvenirNext-Bold-6e" transform="translate(364.199936 0)"/>
       <use xlink:href="#AvenirNext-Bold-65" transform="translate(425.799927 0)"/>
       <use xlink:href="#AvenirNext-Bold-73" transform="translate(485.399918 0)"/>
       <use xlink:href="#AvenirNext-Bold-65" transform="translate(532.599915 0)"/>
      </g>
      <!-- animtate -->
      <g style="fill: #111111" transform="translate(138.9371 280.8682) scale(0.12 -0.12)">
       <defs>
        <path id="AvenirNext-Bold-6d" d="M 4480 0 
L 4480 1741 
Q 4480 1875 4461 2000 
Q 4442 2125 4390 2214 
Q 4339 2304 4252 2358 
Q 4166 2413 4026 2413 
Q 3891 2413 3792 2355 
Q 3693 2298 3625 2202 
Q 3558 2106 3526 1981 
Q 3494 1856 3494 1722 
L 3494 0 
L 2445 0 
L 2445 1818 
Q 2445 2093 2336 2253 
Q 2227 2413 1990 2413 
Q 1741 2413 1603 2214 
Q 1466 2016 1466 1728 
L 1466 0 
L 410 0 
L 410 3187 
L 1427 3187 
L 1427 2746 
L 1440 2746 
Q 1498 2848 1584 2944 
Q 1670 3040 1792 3113 
Q 1914 3187 2064 3232 
Q 2214 3277 2394 3277 
Q 2739 3277 2979 3136 
Q 3219 2995 3354 2733 
Q 3514 2982 3763 3129 
Q 4013 3277 4371 3277 
Q 4698 3277 4918 3158 
Q 5139 3040 5273 2851 
Q 5408 2662 5469 2428 
Q 5530 2195 5530 1971 
L 5530 0 
L 4480 0 
z
" transform="scale(0.015625)"/>
       </defs>
       <use xlink:href="#AvenirNext-Bold-61"/>
       <use xlink:href="#AvenirNext-Bold-6e" transform="translate(56.599991 0)"/>
       <use xlink:href="#AvenirNext-Bold-69" transform="translate(118.199982 0)"/>
       <use xlink:href="#AvenirNext-Bold-6d" transform="translate(147.799973 0)"/>
       <use xlink:href="#AvenirNext-Bold-74" transform="translate(240.199966 0)"/>
       <use xlink:href="#AvenirNext-Bold-61" transform="translate(277.399963 0)"/>
       <use xlink:href="#AvenirNext-Bold-74" transform="translate(333.999954 0)"/>
       <use xlink:href="#AvenirNext-Bold-65" transform="translate(371.199951 0)"/>
      </g>
     </g>
    </g>
    <g id="xtick_3">
     <g id="line2d_3"/>
     <g id="text_3">
      <!-- Line art -->
      <g style="fill: #111111" transform="translate(201.776037 268.19125) scale(0.12 -0.12)">
       <defs>
        <path id="AvenirNext-Bold-4c" d="M 467 0 
L 467 4531 
L 1568 4531 
L 1568 954 
L 3322 954 
L 3322 0 
L 467 0 
z
" transform="scale(0.015625)"/>
       </defs>
       <use xlink:href="#AvenirNext-Bold-4c"/>
       <use xlink:href="#AvenirNext-Bold-69" transform="translate(52.599991 0)"/>
       <use xlink:href="#AvenirNext-Bold-6e" transform="translate(82.199982 0)"/>
       <use xlink:href="#AvenirNext-Bold-65" transform="translate(143.799973 0)"/>
       <use xlink:href="#AvenirNext-Bold-20" transform="translate(203.399963 0)"/>
       <use xlink:href="#AvenirNext-Bold-61" transform="translate(228.399948 0)"/>
       <use xlink:href="#AvenirNext-Bold-72" transform="translate(284.999939 0)"/>
       <use xlink:href="#AvenirNext-Bold-74" transform="translate(324.59993 0)"/>
      </g>
     </g>
    </g>
    <g id="xtick_4">
     <g id="line2d_4"/>
     <g id="text_4">
      <!-- Game art -->
      <g style="fill: #111111" transform="translate(255.546537 268.19125) scale(0.12 -0.12)">
       <defs>
        <path id="AvenirNext-Bold-47" d="M 4493 275 
Q 4160 102 3715 -6 
Q 3270 -115 2746 -115 
Q 2202 -115 1744 57 
Q 1286 230 956 544 
Q 627 858 441 1296 
Q 256 1734 256 2272 
Q 256 2816 445 3257 
Q 634 3699 966 4009 
Q 1299 4320 1747 4486 
Q 2195 4653 2714 4653 
Q 3251 4653 3712 4489 
Q 4173 4326 4461 4051 
L 3770 3264 
Q 3610 3450 3347 3568 
Q 3085 3686 2752 3686 
Q 2464 3686 2221 3580 
Q 1978 3475 1798 3286 
Q 1619 3098 1520 2838 
Q 1421 2579 1421 2272 
Q 1421 1958 1510 1696 
Q 1600 1434 1776 1245 
Q 1952 1056 2211 950 
Q 2470 845 2803 845 
Q 2995 845 3168 873 
Q 3341 902 3488 966 
L 3488 1792 
L 2624 1792 
L 2624 2675 
L 4493 2675 
L 4493 275 
L 4493 275 
z
" transform="scale(0.015625)"/>
       </defs>
       <use xlink:href="#AvenirNext-Bold-47"/>
       <use xlink:href="#AvenirNext-Bold-61" transform="translate(76.899994 0)"/>
       <use xlink:href="#AvenirNext-Bold-6d" transform="translate(133.499985 0)"/>
       <use xlink:href="#AvenirNext-Bold-65" transform="translate(225.899979 0)"/>
       <use xlink:href="#AvenirNext-Bold-20" transform="translate(285.499969 0)"/>
       <use xlink:href="#AvenirNext-Bold-61" transform="translate(310.499954 0)"/>
       <use xlink:href="#AvenirNext-Bold-72" transform="translate(367.099945 0)"/>
       <use xlink:href="#AvenirNext-Bold-74" transform="translate(406.699936 0)"/>
      </g>
     </g>
    </g>
    <g id="xtick_5">
     <g id="line2d_5"/>
     <g id="text_5">
      <!-- Modern art design -->
      <g style="fill: #111111" transform="translate(286.982975 268.19125) scale(0.12 -0.12)">
       <defs>
        <path id="AvenirNext-Bold-4d" d="M 4576 0 
L 4602 3206 
L 4582 3206 
L 3405 0 
L 2637 0 
L 1491 3206 
L 1472 3206 
L 1498 0 
L 467 0 
L 467 4531 
L 2022 4531 
L 3053 1626 
L 3078 1626 
L 4064 4531 
L 5645 4531 
L 5645 0 
L 4576 0 
z
" transform="scale(0.015625)"/>
       </defs>
       <use xlink:href="#AvenirNext-Bold-4d"/>
       <use xlink:href="#AvenirNext-Bold-6f" transform="translate(95.499985 0)"/>
       <use xlink:href="#AvenirNext-Bold-64" transform="translate(158.699982 0)"/>
       <use xlink:href="#AvenirNext-Bold-65" transform="translate(224.499969 0)"/>
       <use xlink:href="#AvenirNext-Bold-72" transform="translate(284.09996 0)"/>
       <use xlink:href="#AvenirNext-Bold-6e" transform="translate(323.699951 0)"/>
       <use xlink:href="#AvenirNext-Bold-20" transform="translate(385.299942 0)"/>
       <use xlink:href="#AvenirNext-Bold-61" transform="translate(410.299927 0)"/>
       <use xlink:href="#AvenirNext-Bold-72" transform="translate(466.899918 0)"/>
       <use xlink:href="#AvenirNext-Bold-74" transform="translate(506.499908 0)"/>
       <use xlink:href="#AvenirNext-Bold-20" transform="translate(543.699905 0)"/>
       <use xlink:href="#AvenirNext-Bold-64" transform="translate(568.69989 0)"/>
       <use xlink:href="#AvenirNext-Bold-65" transform="translate(634.499878 0)"/>
       <use xlink:href="#AvenirNext-Bold-73" transform="translate(694.099869 0)"/>
       <use xlink:href="#AvenirNext-Bold-69" transform="translate(741.299866 0)"/>
       <use xlink:href="#AvenirNext-Bold-67" transform="translate(770.899857 0)"/>
       <use xlink:href="#AvenirNext-Bold-6e" transform="translate(836.699844 0)"/>
      </g>
     </g>
    </g>
    <g id="xtick_6">
     <g id="line2d_6"/>
     <g id="text_6">
      <!-- 3d animate art -->
      <g style="fill: #111111" transform="translate(357.134412 268.19125) scale(0.12 -0.12)">
       <defs>
        <path id="AvenirNext-Bold-33" d="M 3731 1318 
Q 3731 947 3580 675 
Q 3430 403 3187 227 
Q 2944 51 2640 -35 
Q 2336 -122 2022 -122 
Q 1715 -122 1424 -51 
Q 1133 19 893 163 
Q 653 307 473 534 
Q 294 762 205 1082 
L 1203 1344 
Q 1267 1120 1465 950 
Q 1664 781 1971 781 
Q 2086 781 2204 813 
Q 2323 845 2416 912 
Q 2509 979 2569 1088 
Q 2630 1197 2630 1357 
Q 2630 1530 2550 1645 
Q 2470 1760 2339 1827 
Q 2208 1894 2041 1923 
Q 1875 1952 1709 1952 
L 1421 1952 
L 1421 2739 
L 1734 2739 
Q 1888 2739 2029 2761 
Q 2170 2784 2282 2845 
Q 2394 2906 2461 3008 
Q 2528 3110 2528 3277 
Q 2528 3520 2355 3648 
Q 2182 3776 1958 3776 
Q 1728 3776 1558 3638 
Q 1389 3501 1338 3270 
L 339 3501 
Q 422 3789 588 4003 
Q 755 4218 982 4362 
Q 1210 4506 1478 4579 
Q 1747 4653 2029 4653 
Q 2330 4653 2614 4576 
Q 2899 4499 3123 4339 
Q 3347 4179 3484 3939 
Q 3622 3699 3622 3373 
Q 3622 2995 3408 2736 
Q 3194 2477 2861 2387 
L 2861 2368 
Q 3053 2323 3213 2224 
Q 3373 2125 3488 1987 
Q 3603 1850 3667 1680 
Q 3731 1510 3731 1318 
z
" transform="scale(0.015625)"/>
       </defs>
       <use xlink:href="#AvenirNext-Bold-33"/>
       <use xlink:href="#AvenirNext-Bold-64" transform="translate(64.599991 0)"/>
       <use xlink:href="#AvenirNext-Bold-20" transform="translate(130.399979 0)"/>
       <use xlink:href="#AvenirNext-Bold-61" transform="translate(155.399963 0)"/>
       <use xlink:href="#AvenirNext-Bold-6e" transform="translate(211.999954 0)"/>
       <use xlink:href="#AvenirNext-Bold-69" transform="translate(273.599945 0)"/>
       <use xlink:href="#AvenirNext-Bold-6d" transform="translate(303.199936 0)"/>
       <use xlink:href="#AvenirNext-Bold-61" transform="translate(395.59993 0)"/>
       <use xlink:href="#AvenirNext-Bold-74" transform="translate(452.199921 0)"/>
       <use xlink:href="#AvenirNext-Bold-65" transform="translate(489.399918 0)"/>
       <use xlink:href="#AvenirNext-Bold-20" transform="translate(548.999908 0)"/>
       <use xlink:href="#AvenirNext-Bold-61" transform="translate(573.999893 0)"/>
       <use xlink:href="#AvenirNext-Bold-72" transform="translate(630.599884 0)"/>
       <use xlink:href="#AvenirNext-Bold-74" transform="translate(670.199875 0)"/>
      </g>
     </g>
    </g>
    <g id="xtick_7">
     <g id="line2d_7"/>
     <g id="text_7">
      <!-- Traditional -->
      <g style="fill: #111111" transform="translate(427.2521 268.19125) scale(0.12 -0.12)">
       <defs>
        <path id="AvenirNext-Bold-54" d="M 2406 3597 
L 2406 0 
L 1312 0 
L 1312 3597 
L 32 3597 
L 32 4531 
L 3686 4531 
L 3686 3597 
L 2406 3597 
z
" transform="scale(0.015625)"/>
       </defs>
       <use xlink:href="#AvenirNext-Bold-54"/>
       <use xlink:href="#AvenirNext-Bold-72" transform="translate(49.099991 0)"/>
       <use xlink:href="#AvenirNext-Bold-61" transform="translate(87.074982 0)"/>
       <use xlink:href="#AvenirNext-Bold-64" transform="translate(143.674973 0)"/>
       <use xlink:href="#AvenirNext-Bold-69" transform="translate(209.47496 0)"/>
       <use xlink:href="#AvenirNext-Bold-74" transform="translate(239.074951 0)"/>
       <use xlink:href="#AvenirNext-Bold-69" transform="translate(276.274948 0)"/>
       <use xlink:href="#AvenirNext-Bold-6f" transform="translate(305.874939 0)"/>
       <use xlink:href="#AvenirNext-Bold-6e" transform="translate(369.074936 0)"/>
       <use xlink:href="#AvenirNext-Bold-61" transform="translate(430.674927 0)"/>
       <use xlink:href="#AvenirNext-Bold-6c" transform="translate(487.274918 0)"/>
      </g>
      <!-- western art -->
      <g style="fill: #111111" transform="translate(425.258037 280.8682) scale(0.12 -0.12)">
       <defs>
        <path id="AvenirNext-Bold-77" d="M 4467 0 
L 3411 0 
L 2784 1984 
L 2771 1984 
L 2157 0 
L 1101 0 
L 0 3187 
L 1133 3187 
L 1683 1171 
L 1702 1171 
L 2272 3187 
L 3328 3187 
L 3917 1171 
L 3930 1171 
L 4486 3187 
L 5574 3187 
L 4467 0 
z
" transform="scale(0.015625)"/>
       </defs>
       <use xlink:href="#AvenirNext-Bold-77"/>
       <use xlink:href="#AvenirNext-Bold-65" transform="translate(87.099991 0)"/>
       <use xlink:href="#AvenirNext-Bold-73" transform="translate(146.699982 0)"/>
       <use xlink:href="#AvenirNext-Bold-74" transform="translate(193.899979 0)"/>
       <use xlink:href="#AvenirNext-Bold-65" transform="translate(231.099976 0)"/>
       <use xlink:href="#AvenirNext-Bold-72" transform="translate(290.699966 0)"/>
       <use xlink:href="#AvenirNext-Bold-6e" transform="translate(330.299957 0)"/>
       <use xlink:href="#AvenirNext-Bold-20" transform="translate(391.899948 0)"/>
       <use xlink:href="#AvenirNext-Bold-61" transform="translate(416.899933 0)"/>
       <use xlink:href="#AvenirNext-Bold-72" transform="translate(473.499924 0)"/>
       <use xlink:href="#AvenirNext-Bold-74" transform="translate(513.099915 0)"/>
      </g>
     </g>
    </g>
    <g id="xtick_8">
     <g id="line2d_8"/>
     <g id="text_8">
      <!-- 2.5D style -->
      <g style="fill: #111111" transform="translate(487.44635 268.19125) scale(0.12 -0.12)">
       <defs>
        <path id="AvenirNext-Bold-2e" d="M 1606 563 
Q 1606 294 1417 115 
Q 1229 -64 966 -64 
Q 832 -64 713 -16 
Q 595 32 505 115 
Q 416 198 365 310 
Q 314 422 314 557 
Q 314 685 365 800 
Q 416 915 505 1001 
Q 595 1088 713 1139 
Q 832 1190 966 1190 
Q 1229 1190 1417 1011 
Q 1606 832 1606 563 
z
" transform="scale(0.015625)"/>
        <path id="AvenirNext-Bold-35" d="M 3725 1498 
Q 3725 1082 3577 778 
Q 3430 474 3184 275 
Q 2938 77 2624 -22 
Q 2310 -122 1978 -122 
Q 1670 -122 1392 -42 
Q 1114 38 886 185 
Q 659 333 496 547 
Q 333 762 256 1030 
L 1235 1331 
Q 1306 1094 1501 940 
Q 1696 787 1965 787 
Q 2240 787 2441 953 
Q 2643 1120 2643 1446 
Q 2643 1645 2560 1779 
Q 2477 1914 2345 1994 
Q 2214 2074 2048 2106 
Q 1882 2138 1715 2138 
Q 1472 2138 1161 2083 
Q 851 2029 608 1939 
L 717 4531 
L 3494 4531 
L 3494 3610 
L 1670 3610 
L 1632 2893 
Q 1734 2918 1859 2928 
Q 1984 2938 2086 2938 
Q 2426 2938 2726 2848 
Q 3027 2758 3248 2576 
Q 3469 2394 3597 2125 
Q 3725 1856 3725 1498 
z
" transform="scale(0.015625)"/>
        <path id="AvenirNext-Bold-44" d="M 4698 2278 
Q 4698 1683 4477 1251 
Q 4256 819 3894 540 
Q 3533 262 3078 131 
Q 2624 0 2157 0 
L 467 0 
L 467 4531 
L 2106 4531 
Q 2586 4531 3053 4419 
Q 3520 4307 3885 4048 
Q 4250 3789 4474 3353 
Q 4698 2918 4698 2278 
z
M 3558 2278 
Q 3558 2662 3433 2915 
Q 3309 3168 3101 3318 
Q 2893 3469 2627 3533 
Q 2362 3597 2080 3597 
L 1536 3597 
L 1536 947 
L 2054 947 
Q 2349 947 2621 1014 
Q 2893 1082 3101 1235 
Q 3309 1389 3433 1645 
Q 3558 1901 3558 2278 
z
" transform="scale(0.015625)"/>
        <path id="AvenirNext-Bold-79" d="M 2208 -480 
Q 2112 -730 1993 -925 
Q 1875 -1120 1712 -1257 
Q 1549 -1395 1328 -1465 
Q 1107 -1536 806 -1536 
Q 659 -1536 502 -1517 
Q 346 -1498 230 -1466 
L 346 -582 
Q 422 -608 515 -624 
Q 608 -640 685 -640 
Q 928 -640 1037 -528 
Q 1146 -416 1222 -211 
L 1325 51 
L -6 3187 
L 1158 3187 
L 1869 1139 
L 1888 1139 
L 2522 3187 
L 3635 3187 
L 2208 -480 
z
" transform="scale(0.015625)"/>
       </defs>
       <use xlink:href="#AvenirNext-Bold-32"/>
       <use xlink:href="#AvenirNext-Bold-2e" transform="translate(64.599991 0)"/>
       <use xlink:href="#AvenirNext-Bold-35" transform="translate(94.599976 0)"/>
       <use xlink:href="#AvenirNext-Bold-44" transform="translate(159.199966 0)"/>
       <use xlink:href="#AvenirNext-Bold-20" transform="translate(236.59996 0)"/>
       <use xlink:href="#AvenirNext-Bold-73" transform="translate(261.599945 0)"/>
       <use xlink:href="#AvenirNext-Bold-74" transform="translate(308.799942 0)"/>
       <use xlink:href="#AvenirNext-Bold-79" transform="translate(345.999939 0)"/>
       <use xlink:href="#AvenirNext-Bold-6c" transform="translate(402.699936 0)"/>
       <use xlink:href="#AvenirNext-Bold-65" transform="translate(432.499924 0)"/>
      </g>
     </g>
    </g>
    <g id="xtick_9">
     <g id="line2d_9"/>
     <g id="text_9">
      <!-- 2d west animate -->
      <g style="fill: #111111" transform="translate(527.366225 268.19125) scale(0.12 -0.12)">
       <use xlink:href="#AvenirNext-Bold-32"/>
       <use xlink:href="#AvenirNext-Bold-64" transform="translate(64.599991 0)"/>
       <use xlink:href="#AvenirNext-Bold-20" transform="translate(130.399979 0)"/>
       <use xlink:href="#AvenirNext-Bold-77" transform="translate(155.399963 0)"/>
       <use xlink:href="#AvenirNext-Bold-65" transform="translate(242.499954 0)"/>
       <use xlink:href="#AvenirNext-Bold-73" transform="translate(302.099945 0)"/>
       <use xlink:href="#AvenirNext-Bold-74" transform="translate(349.299942 0)"/>
       <use xlink:href="#AvenirNext-Bold-20" transform="translate(386.499939 0)"/>
       <use xlink:href="#AvenirNext-Bold-61" transform="translate(411.499924 0)"/>
       <use xlink:href="#AvenirNext-Bold-6e" transform="translate(468.099915 0)"/>
       <use xlink:href="#AvenirNext-Bold-69" transform="translate(529.699905 0)"/>
       <use xlink:href="#AvenirNext-Bold-6d" transform="translate(559.299896 0)"/>
       <use xlink:href="#AvenirNext-Bold-61" transform="translate(651.69989 0)"/>
       <use xlink:href="#AvenirNext-Bold-74" transform="translate(708.299881 0)"/>
       <use xlink:href="#AvenirNext-Bold-65" transform="translate(745.499878 0)"/>
      </g>
     </g>
    </g>
    <g id="xtick_10">
     <g id="line2d_10"/>
     <g id="text_10">
      <!-- Traditional -->
      <g style="fill: #111111" transform="translate(603.3461 268.19125) scale(0.12 -0.12)">
       <use xlink:href="#AvenirNext-Bold-54"/>
       <use xlink:href="#AvenirNext-Bold-72" transform="translate(49.099991 0)"/>
       <use xlink:href="#AvenirNext-Bold-61" transform="translate(87.074982 0)"/>
       <use xlink:href="#AvenirNext-Bold-64" transform="translate(143.674973 0)"/>
       <use xlink:href="#AvenirNext-Bold-69" transform="translate(209.47496 0)"/>
       <use xlink:href="#AvenirNext-Bold-74" transform="translate(239.074951 0)"/>
       <use xlink:href="#AvenirNext-Bold-69" transform="translate(276.274948 0)"/>
       <use xlink:href="#AvenirNext-Bold-6f" transform="translate(305.874939 0)"/>
       <use xlink:href="#AvenirNext-Bold-6e" transform="translate(369.074936 0)"/>
       <use xlink:href="#AvenirNext-Bold-61" transform="translate(430.674927 0)"/>
       <use xlink:href="#AvenirNext-Bold-6c" transform="translate(487.274918 0)"/>
      </g>
      <!-- eastern art -->
      <g style="fill: #111111" transform="translate(603.182037 280.8682) scale(0.12 -0.12)">
       <use xlink:href="#AvenirNext-Bold-65"/>
       <use xlink:href="#AvenirNext-Bold-61" transform="translate(59.599991 0)"/>
       <use xlink:href="#AvenirNext-Bold-73" transform="translate(116.199982 0)"/>
       <use xlink:href="#AvenirNext-Bold-74" transform="translate(163.399979 0)"/>
       <use xlink:href="#AvenirNext-Bold-65" transform="translate(200.599976 0)"/>
       <use xlink:href="#AvenirNext-Bold-72" transform="translate(260.199966 0)"/>
       <use xlink:href="#AvenirNext-Bold-6e" transform="translate(299.799957 0)"/>
       <use xlink:href="#AvenirNext-Bold-20" transform="translate(361.399948 0)"/>
       <use xlink:href="#AvenirNext-Bold-61" transform="translate(386.399933 0)"/>
       <use xlink:href="#AvenirNext-Bold-72" transform="translate(442.999924 0)"/>
       <use xlink:href="#AvenirNext-Bold-74" transform="translate(482.599915 0)"/>
      </g>
     </g>
    </g>
    <g id="xtick_11">
     <g id="line2d_11"/>
     <g id="text_11">
      <!-- Material art -->
      <g style="fill: #111111" transform="translate(659.294412 268.19125) scale(0.12 -0.12)">
       <use xlink:href="#AvenirNext-Bold-4d"/>
       <use xlink:href="#AvenirNext-Bold-61" transform="translate(95.499985 0)"/>
       <use xlink:href="#AvenirNext-Bold-74" transform="translate(152.099976 0)"/>
       <use xlink:href="#AvenirNext-Bold-65" transform="translate(189.299973 0)"/>
       <use xlink:href="#AvenirNext-Bold-72" transform="translate(248.899963 0)"/>
       <use xlink:href="#AvenirNext-Bold-69" transform="translate(288.499954 0)"/>
       <use xlink:href="#AvenirNext-Bold-61" transform="translate(318.099945 0)"/>
       <use xlink:href="#AvenirNext-Bold-6c" transform="translate(374.699936 0)"/>
       <use xlink:href="#AvenirNext-Bold-20" transform="translate(404.499924 0)"/>
       <use xlink:href="#AvenirNext-Bold-61" transform="translate(429.499908 0)"/>
       <use xlink:href="#AvenirNext-Bold-72" transform="translate(486.099899 0)"/>
       <use xlink:href="#AvenirNext-Bold-74" transform="translate(525.69989 0)"/>
      </g>
     </g>
    </g>
   </g>
   <g id="matplotlib.axis_2">
    <g id="ytick_1">
     <g id="line2d_12">
      <path d="M 55.214375 249.12 
L 743.937575 249.12 
" clip-path="url(#p0b1499d6c3)" style="fill: none; stroke-dasharray: 2.96,1.28; stroke-dashoffset: 0; stroke: #dddddd; stroke-opacity: 0.7; stroke-width: 0.8"/>
     </g>
     <g id="line2d_13">
      <defs>
       <path id="m229f77c51a" d="M 0 0 
L -3.5 0 
" style="stroke: #333333; stroke-width: 0.8"/>
      </defs>
      <g>
       <use xlink:href="#m229f77c51a" x="55.214375" y="249.12" style="fill: #333333; stroke: #333333; stroke-width: 0.8"/>
      </g>
     </g>
     <g id="text_12">
      <!-- 0 -->
      <g style="fill: #333333" transform="translate(41.851875 252.919219) scale(0.1 -0.1)">
       <defs>
        <path id="DejaVuSans-30" d="M 2034 4250 
Q 1547 4250 1301 3770 
Q 1056 3291 1056 2328 
Q 1056 1369 1301 889 
Q 1547 409 2034 409 
Q 2525 409 2770 889 
Q 3016 1369 3016 2328 
Q 3016 3291 2770 3770 
Q 2525 4250 2034 4250 
z
M 2034 4750 
Q 2819 4750 3233 4129 
Q 3647 3509 3647 2328 
Q 3647 1150 3233 529 
Q 2819 -91 2034 -91 
Q 1250 -91 836 529 
Q 422 1150 422 2328 
Q 422 3509 836 4129 
Q 1250 4750 2034 4750 
z
" transform="scale(0.015625)"/>
       </defs>
       <use xlink:href="#DejaVuSans-30"/>
      </g>
     </g>
    </g>
    <g id="ytick_2">
     <g id="line2d_14">
      <path d="M 55.214375 205.811729 
L 743.937575 205.811729 
" clip-path="url(#p0b1499d6c3)" style="fill: none; stroke-dasharray: 2.96,1.28; stroke-dashoffset: 0; stroke: #dddddd; stroke-opacity: 0.7; stroke-width: 0.8"/>
     </g>
     <g id="line2d_15">
      <g>
       <use xlink:href="#m229f77c51a" x="55.214375" y="205.811729" style="fill: #333333; stroke: #333333; stroke-width: 0.8"/>
      </g>
     </g>
     <g id="text_13">
      <!-- 100 -->
      <g style="fill: #333333" transform="translate(29.126875 209.610948) scale(0.1 -0.1)">
       <defs>
        <path id="DejaVuSans-31" d="M 794 531 
L 1825 531 
L 1825 4091 
L 703 3866 
L 703 4441 
L 1819 4666 
L 2450 4666 
L 2450 531 
L 3481 531 
L 3481 0 
L 794 0 
L 794 531 
z
" transform="scale(0.015625)"/>
       </defs>
       <use xlink:href="#DejaVuSans-31"/>
       <use xlink:href="#DejaVuSans-30" transform="translate(63.623047 0)"/>
       <use xlink:href="#DejaVuSans-30" transform="translate(127.246094 0)"/>
      </g>
     </g>
    </g>
    <g id="ytick_3">
     <g id="line2d_16">
      <path d="M 55.214375 162.503459 
L 743.937575 162.503459 
" clip-path="url(#p0b1499d6c3)" style="fill: none; stroke-dasharray: 2.96,1.28; stroke-dashoffset: 0; stroke: #dddddd; stroke-opacity: 0.7; stroke-width: 0.8"/>
     </g>
     <g id="line2d_17">
      <g>
       <use xlink:href="#m229f77c51a" x="55.214375" y="162.503459" style="fill: #333333; stroke: #333333; stroke-width: 0.8"/>
      </g>
     </g>
     <g id="text_14">
      <!-- 200 -->
      <g style="fill: #333333" transform="translate(29.126875 166.302677) scale(0.1 -0.1)">
       <defs>
        <path id="DejaVuSans-32" d="M 1228 531 
L 3431 531 
L 3431 0 
L 469 0 
L 469 531 
Q 828 903 1448 1529 
Q 2069 2156 2228 2338 
Q 2531 2678 2651 2914 
Q 2772 3150 2772 3378 
Q 2772 3750 2511 3984 
Q 2250 4219 1831 4219 
Q 1534 4219 1204 4116 
Q 875 4013 500 3803 
L 500 4441 
Q 881 4594 1212 4672 
Q 1544 4750 1819 4750 
Q 2544 4750 2975 4387 
Q 3406 4025 3406 3419 
Q 3406 3131 3298 2873 
Q 3191 2616 2906 2266 
Q 2828 2175 2409 1742 
Q 1991 1309 1228 531 
z
" transform="scale(0.015625)"/>
       </defs>
       <use xlink:href="#DejaVuSans-32"/>
       <use xlink:href="#DejaVuSans-30" transform="translate(63.623047 0)"/>
       <use xlink:href="#DejaVuSans-30" transform="translate(127.246094 0)"/>
      </g>
     </g>
    </g>
    <g id="ytick_4">
     <g id="line2d_18">
      <path d="M 55.214375 119.195188 
L 743.937575 119.195188 
" clip-path="url(#p0b1499d6c3)" style="fill: none; stroke-dasharray: 2.96,1.28; stroke-dashoffset: 0; stroke: #dddddd; stroke-opacity: 0.7; stroke-width: 0.8"/>
     </g>
     <g id="line2d_19">
      <g>
       <use xlink:href="#m229f77c51a" x="55.214375" y="119.195188" style="fill: #333333; stroke: #333333; stroke-width: 0.8"/>
      </g>
     </g>
     <g id="text_15">
      <!-- 300 -->
      <g style="fill: #333333" transform="translate(29.126875 122.994407) scale(0.1 -0.1)">
       <defs>
        <path id="DejaVuSans-33" d="M 2597 2516 
Q 3050 2419 3304 2112 
Q 3559 1806 3559 1356 
Q 3559 666 3084 287 
Q 2609 -91 1734 -91 
Q 1441 -91 1130 -33 
Q 819 25 488 141 
L 488 750 
Q 750 597 1062 519 
Q 1375 441 1716 441 
Q 2309 441 2620 675 
Q 2931 909 2931 1356 
Q 2931 1769 2642 2001 
Q 2353 2234 1838 2234 
L 1294 2234 
L 1294 2753 
L 1863 2753 
Q 2328 2753 2575 2939 
Q 2822 3125 2822 3475 
Q 2822 3834 2567 4026 
Q 2313 4219 1838 4219 
Q 1578 4219 1281 4162 
Q 984 4106 628 3988 
L 628 4550 
Q 988 4650 1302 4700 
Q 1616 4750 1894 4750 
Q 2613 4750 3031 4423 
Q 3450 4097 3450 3541 
Q 3450 3153 3228 2886 
Q 3006 2619 2597 2516 
z
" transform="scale(0.015625)"/>
       </defs>
       <use xlink:href="#DejaVuSans-33"/>
       <use xlink:href="#DejaVuSans-30" transform="translate(63.623047 0)"/>
       <use xlink:href="#DejaVuSans-30" transform="translate(127.246094 0)"/>
      </g>
     </g>
    </g>
    <g id="ytick_5">
     <g id="line2d_20">
      <path d="M 55.214375 75.886917 
L 743.937575 75.886917 
" clip-path="url(#p0b1499d6c3)" style="fill: none; stroke-dasharray: 2.96,1.28; stroke-dashoffset: 0; stroke: #dddddd; stroke-opacity: 0.7; stroke-width: 0.8"/>
     </g>
     <g id="line2d_21">
      <g>
       <use xlink:href="#m229f77c51a" x="55.214375" y="75.886917" style="fill: #333333; stroke: #333333; stroke-width: 0.8"/>
      </g>
     </g>
     <g id="text_16">
      <!-- 400 -->
      <g style="fill: #333333" transform="translate(29.126875 79.686136) scale(0.1 -0.1)">
       <defs>
        <path id="DejaVuSans-34" d="M 2419 4116 
L 825 1625 
L 2419 1625 
L 2419 4116 
z
M 2253 4666 
L 3047 4666 
L 3047 1625 
L 3713 1625 
L 3713 1100 
L 3047 1100 
L 3047 0 
L 2419 0 
L 2419 1100 
L 313 1100 
L 313 1709 
L 2253 4666 
z
" transform="scale(0.015625)"/>
       </defs>
       <use xlink:href="#DejaVuSans-34"/>
       <use xlink:href="#DejaVuSans-30" transform="translate(63.623047 0)"/>
       <use xlink:href="#DejaVuSans-30" transform="translate(127.246094 0)"/>
      </g>
     </g>
    </g>
    <g id="ytick_6">
     <g id="line2d_22">
      <path d="M 55.214375 32.578647 
L 743.937575 32.578647 
" clip-path="url(#p0b1499d6c3)" style="fill: none; stroke-dasharray: 2.96,1.28; stroke-dashoffset: 0; stroke: #dddddd; stroke-opacity: 0.7; stroke-width: 0.8"/>
     </g>
     <g id="line2d_23">
      <g>
       <use xlink:href="#m229f77c51a" x="55.214375" y="32.578647" style="fill: #333333; stroke: #333333; stroke-width: 0.8"/>
      </g>
     </g>
     <g id="text_17">
      <!-- 500 -->
      <g style="fill: #333333" transform="translate(29.126875 36.377865) scale(0.1 -0.1)">
       <defs>
        <path id="DejaVuSans-35" d="M 691 4666 
L 3169 4666 
L 3169 4134 
L 1269 4134 
L 1269 2991 
Q 1406 3038 1543 3061 
Q 1681 3084 1819 3084 
Q 2600 3084 3056 2656 
Q 3513 2228 3513 1497 
Q 3513 744 3044 326 
Q 2575 -91 1722 -91 
Q 1428 -91 1123 -41 
Q 819 9 494 109 
L 494 744 
Q 775 591 1075 516 
Q 1375 441 1709 441 
Q 2250 441 2565 725 
Q 2881 1009 2881 1497 
Q 2881 1984 2565 2268 
Q 2250 2553 1709 2553 
Q 1456 2553 1204 2497 
Q 953 2441 691 2322 
L 691 4666 
z
" transform="scale(0.015625)"/>
       </defs>
       <use xlink:href="#DejaVuSans-35"/>
       <use xlink:href="#DejaVuSans-30" transform="translate(63.623047 0)"/>
       <use xlink:href="#DejaVuSans-30" transform="translate(127.246094 0)"/>
      </g>
     </g>
    </g>
    <g id="text_18">
     <!-- Count -->
     <g transform="translate(20.806875 154.53) rotate(-90) scale(0.18 -0.18)">
      <defs>
       <path id="AvenirNext-Bold-43" d="M 4454 627 
Q 4154 282 3712 80 
Q 3270 -122 2694 -122 
Q 2170 -122 1725 51 
Q 1280 224 953 541 
Q 627 858 441 1299 
Q 256 1741 256 2272 
Q 256 2816 445 3257 
Q 634 3699 966 4009 
Q 1299 4320 1747 4486 
Q 2195 4653 2714 4653 
Q 3194 4653 3658 4483 
Q 4122 4314 4410 3987 
L 3667 3245 
Q 3514 3456 3264 3558 
Q 3014 3661 2752 3661 
Q 2464 3661 2224 3555 
Q 1984 3450 1811 3264 
Q 1638 3078 1542 2825 
Q 1446 2573 1446 2272 
Q 1446 1965 1542 1709 
Q 1638 1453 1808 1270 
Q 1978 1088 2214 985 
Q 2451 883 2733 883 
Q 3059 883 3302 1011 
Q 3546 1139 3693 1344 
L 4454 627 
L 4454 627 
z
" transform="scale(0.015625)"/>
      </defs>
      <use xlink:href="#AvenirNext-Bold-43"/>
      <use xlink:href="#AvenirNext-Bold-6f" transform="translate(69.599991 0)"/>
      <use xlink:href="#AvenirNext-Bold-75" transform="translate(132.799988 0)"/>
      <use xlink:href="#AvenirNext-Bold-6e" transform="translate(194.199982 0)"/>
      <use xlink:href="#AvenirNext-Bold-74" transform="translate(255.799973 0)"/>
     </g>
    </g>
   </g>
   <g id="patch_14">
    <path d="M 55.214375 249.12 
L 55.214375 7.2 
" style="fill: none; stroke: #333333; stroke-width: 0.8; stroke-linejoin: miter; stroke-linecap: square"/>
   </g>
   <g id="patch_15">
    <path d="M 55.214375 249.12 
L 743.937575 249.12 
" style="fill: none; stroke: #333333; stroke-width: 0.8; stroke-linejoin: miter; stroke-linecap: square"/>
   </g>
  </g>
 </g>
 <defs>
  <clipPath id="p0b1499d6c3">
   <rect x="55.214375" y="7.2" width="688.7232" height="241.92"/>
  </clipPath>
 </defs>
</svg>
